<svg xmlns="http://www.w3.org/2000/svg" xmlns:xlink="http://www.w3.org/1999/xlink" viewBox="0 0 178.75962 118.9533"><defs><clipPath id="clip-path" transform="translate(-0.4245 18.9053)"><polygon id="SVGID" points="45.627 23.223 66.008 0.007 138.048 0.007 167.289 43.16 33.576 43.16 45.627 23.223" fill="none"/></clipPath></defs><title>House</title><g style="isolation:isolate"><g id="Layer_1" data-name="Layer 1"><path d="M27.6623,99.2706c-5.6418,1.0295-11.9829,1.3073-16.5652-2.1411s-5.3035-11.8737-.1144-14.3156C5.3482,80.2865.2636,75.072.4284,68.8987s8.0079-11.4369,12.889-7.654c-2.4994-7.1753-4.8126-15.7616-.2475-21.8354,4.5118-6.003,13.2705-6.2469,20.77339-5.9316a20.81147,20.81147,0,0,1,6.332-23.909,20.81161,20.81161,0,0,1,24.733.1343c2.041-5.565,10.2321-6.5093,15.061-3.0717s6.9465,9.5011,8.326,15.2658c5.7988,24.2326,3.4696,49.5768,1.1068,74.3813" transform="translate(-0.4245 18.9053)" fill="#b1d665"/><path d="M157.06689,100.048c7.595,0,12.621-.5317,17.1613-4.4809,1.9304-1.679,4.084-3.3512,4.7603-5.8186s-.4296-5.5515-2.869-6.3226c1.4826-.5519,2.054-2.3456,2.178-3.9228.28251-3.5926-.9041-7.4499-3.7244-9.6932s-7.3683-2.3491-9.8337.2793c1.6157-1.999.71-5.1825-1.2462-6.8497s-4.611-2.1984-7.1455-2.6253a19.67274,19.67274,0,0,0-4.7771-.3907,13.52431,13.52431,0,0,0-5.9757,2.1132,19.44092,19.44092,0,0,0-5.8642,27.472c1.888,2.7772,5.243,5.2158,8.4058,4.0871" transform="translate(-0.4245 18.9053)" fill="#b1d665"/><rect x="58.5561" y="57.5466" width="98.0863" height="61.4067" fill="#cc7e36"/><rect x="150.38299" y="103.4228" width="6.2594" height="2.177" fill="#f89655"/><polygon points="162.345 57.547 166.865 62.066 166.865 66.053 33.152 66.053 33.152 62.066 62.659 55.42 162.345 57.547" fill="#4a4b4d"/><g opacity="0.3" style="mix-blend-mode:multiply"><polygon points="152.469 58.543 156.642 63.063 156.642 67.05 33.152 67.05 33.152 63.063 60.403 56.417 152.469 58.543" fill="#4a4b4d"/></g><g clip-path="url(#clip-path)"><polygon points="45.203 42.128 65.583 18.913 137.623 18.913 166.865 62.066 33.152 62.066 45.203 42.128" fill="#5d6162"/><path d="M41.31239,62.0718s1.7982,7.1658,7.44061,7.271,7.76989-4.4945,8.32489-7.2257L50.88049,58.82Z" transform="translate(-0.4245 18.9053)" fill="#5d6162"/><path d="M48.93769,69.5873c-.0626,0-.1251-.001-.1896-.0019-5.7606-.1076-7.6524-7.3809-7.6704-7.4544l-.055-.217,9.8788-3.3575,6.4507,3.4319-.0361.1772C56.58249,65.771,53.997,69.5873,48.93769,69.5873Zm-7.3283-7.3601c.3545,1.1762,2.3003,6.7824,7.1482,6.8729.0616.0014.1223.0019.1829.0019,5.8924,0,7.5226-5.3607,7.8619-6.8568l-5.9426-3.1618Z" transform="translate(-0.4245 18.9053)" fill="#505656"/><path d="M57.07789,62.0718s1.79811,7.1658,7.4405,7.271,7.7699-4.4945,8.3249-7.2257L66.64589,58.82Z" transform="translate(-0.4245 18.9053)" fill="#5d6162"/><path d="M64.70319,69.5873c-.0626,0-.1251-.001-.1896-.0019-5.76059-.1076-7.6524-7.3809-7.6704-7.4544l-.055-.217L66.667,58.5565l6.45059,3.4319-.036.1772C72.348,65.771,69.76249,69.5873,64.70319,69.5873Zm-7.3283-7.3601c.3545,1.1762,2.3003,6.7824,7.1482,6.8729.0616.0014.1223.0019.18291.0019,5.89239,0,7.52259-5.3607,7.86189-6.8568l-5.9426-3.1618Z" transform="translate(-0.4245 18.9053)" fill="#505656"/><path d="M72.84329,62.0718s1.7981,7.1658,7.4405,7.271,7.7699-4.4945,8.3249-7.2257L82.41129,58.82Z" transform="translate(-0.4245 18.9053)" fill="#5d6162"/><path d="M80.46959,69.5873c-.0635,0-.126-.001-.1905-.0019-5.7606-.1076-7.6524-7.3809-7.6704-7.4544l-.055-.217,9.8788-3.3575,6.4497,3.4314-.036.1777C88.11449,65.771,85.52889,69.5873,80.46959,69.5873Zm-7.3292-7.3601c.3545,1.1762,2.3003,6.7824,7.1482,6.8729.0616.0014.1223.0019.1839.0019,5.8924,0,7.5207-5.3607,7.86-6.8568l-5.9417-3.1618Z" transform="translate(-0.4245 18.9053)" fill="#505656"/><path d="M88.60869,62.0718s1.7982,7.1658,7.4406,7.271,7.7698-4.4945,8.3248-7.2257L98.17669,58.82Z" transform="translate(-0.4245 18.9053)" fill="#5d6162"/><path d="M96.23509,69.5873c-.0635,0-.126-.001-.1905-.0019-5.76059-.1076-7.6534-7.3809-7.6714-7.4544l-.0549-.217L98.198,58.5565l6.44969,3.4314-.036.1777C103.88,65.771,101.29439,69.5873,96.23509,69.5873Zm-7.3302-7.3601c.3545,1.1762,2.3013,6.7824,7.1492,6.8729.0616.0014.1223.0019.18391.0019,5.89239,0,7.52069-5.3607,7.86-6.8568l-5.94171-3.1618Z" transform="translate(-0.4245 18.9053)" fill="#505656"/><path d="M104.37409,62.0718s1.7982,7.1658,7.4406,7.271,7.7699-4.4945,8.3248-7.2257l-6.1973-3.2971Z" transform="translate(-0.4245 18.9053)" fill="#5d6162"/><path d="M112.00059,69.5873c-.0635,0-.126-.001-.1905-.0019-5.7606-.1076-7.6534-7.3809-7.6714-7.4544l-.055-.217,9.8798-3.3575,6.4497,3.4314-.036.1777C119.64549,65.771,117.05989,69.5873,112.00059,69.5873Zm-7.3302-7.3601c.3545,1.1762,2.3013,6.7824,7.1492,6.8729.0616.0014.1223.0019.1839.0019,5.8924,0,7.5206-5.3607,7.86-6.8568l-5.9417-3.1618Z" transform="translate(-0.4245 18.9053)" fill="#505656"/><path d="M120.13949,62.0718s1.7982,7.1658,7.4406,7.271,7.76991-4.4945,8.32491-7.2257L129.70759,58.82Z" transform="translate(-0.4245 18.9053)" fill="#5d6162"/><path d="M127.76609,69.5873c-.0635,0-.126-.001-.1905-.0019-5.76059-.1076-7.6534-7.3809-7.6714-7.4544l-.055-.217,9.87881-3.3575,6.45069,3.4314-.036.1777C135.411,65.771,132.82539,69.5873,127.76609,69.5873Zm-7.3302-7.3601c.3545,1.1762,2.3012,6.7824,7.1492,6.8729.0616.0014.1222.0019.18391.0019,5.89229,0,7.52059-5.3607,7.86-6.8568l-5.94271-3.1618Z" transform="translate(-0.4245 18.9053)" fill="#505656"/><path d="M135.905,62.0718s1.79809,7.1658,7.44049,7.271,7.7699-4.4945,8.3249-7.2257L145.473,58.82Z" transform="translate(-0.4245 18.9053)" fill="#5d6162"/><path d="M143.53159,69.5873c-.0635,0-.1261-.001-.1905-.0019-5.7616-.1076-7.6534-7.3809-7.6714-7.4544l-.055-.217,9.8788-3.3575,6.4507,3.4314-.0361.1777C151.17649,65.771,148.59089,69.5873,143.53159,69.5873Zm-7.3302-7.3601c.3545,1.1762,2.3012,6.7824,7.1492,6.8729.0616.0014.1222.0019.1838.0019,5.8924,0,7.5207-5.3607,7.86-6.8568l-5.9426-3.1618Z" transform="translate(-0.4245 18.9053)" fill="#505656"/><path d="M151.67039,62.0718s1.7982,7.1658,7.44061,7.271,7.76979-4.4945,8.32479-7.2257l-6.1974-3.2971Z" transform="translate(-0.4245 18.9053)" fill="#5d6162"/><path d="M159.29709,69.5873c-.0635,0-.12609-.001-.1905-.0019-5.76159-.1076-7.6534-7.3809-7.6714-7.4544l-.055-.217,9.87881-3.3575,6.45069,3.4314-.0361.1777C166.94189,65.771,164.35639,69.5873,159.29709,69.5873Zm-7.3302-7.3601c.3545,1.1762,2.3012,6.7824,7.1492,6.8729.0616.0014.1222.0019.1838.0019,5.8924,0,7.5207-5.3607,7.86-6.8568l-5.9426-3.1618Z" transform="translate(-0.4245 18.9053)" fill="#505656"/><path d="M33.42969,56.8094s1.7982,7.1659,7.4406,7.2711,7.7699-4.4946,8.3248-7.2257l-6.1973-3.2972Z" transform="translate(-0.4245 18.9053)" fill="#5d6162"/><path d="M41.055,64.3252c-.06261,0-.12521-.001-.18961-.0019-5.7607-.1076-7.65239-7.3814-7.67039-7.4549l-.055-.217,9.87879-3.3571,6.4506,3.431-.036.1777C48.69979,60.5084,46.11419,64.3252,41.055,64.3252Zm-7.32831-7.3606c.3544,1.1767,2.3002,6.7829,7.1482,6.8734.0616.0014.1222.0019.1829.0019,5.8924,0,7.5226-5.3612,7.8619-6.8573l-5.9426-3.1613Z" transform="translate(-0.4245 18.9053)" fill="#505656"/><path d="M49.19509,56.8094s1.7982,7.1659,7.4406,7.2711,7.7699-4.4946,8.3249-7.2257l-6.1974-3.2972Z" transform="translate(-0.4245 18.9053)" fill="#5d6162"/><path d="M56.82039,64.3252c-.0625,0-.1251-.001-.1895-.0019-5.7607-.1076-7.6524-7.3814-7.6705-7.4549l-.0549-.217,9.8788-3.3571,6.4506,3.431-.036.1777C64.46529,60.5084,61.87969,64.3252,56.82039,64.3252Zm-7.3282-7.3606c.3544,1.1767,2.3002,6.7829,7.1482,6.8734.06161.0014.1222.0019.1829.0019,5.8924,0,7.5226-5.3612,7.8619-6.8573l-5.9426-3.1613Z" transform="translate(-0.4245 18.9053)" fill="#505656"/><path d="M64.96059,56.8094s1.7981,7.1659,7.4405,7.2711S80.171,59.5859,80.726,56.8548l-6.19741-3.2972Z" transform="translate(-0.4245 18.9053)" fill="#5d6162"/><path d="M72.58689,64.3252c-.0635,0-.1261-.001-.1905-.0019-5.7607-.1076-7.6525-7.3814-7.6705-7.4549l-.05489-.217,9.87879-3.3571,6.4496,3.431-.036.1777C80.23169,60.5084,77.64619,64.3252,72.58689,64.3252Zm-7.3293-7.3606c.3545,1.1767,2.3003,6.7829,7.1483,6.8734.0616.0014.1222.0019.1838.0019,5.8924,0,7.5207-5.3612,7.86-6.8573L74.508,53.8213Z" transform="translate(-0.4245 18.9053)" fill="#505656"/><path d="M80.726,56.8094s1.79819,7.1659,7.44059,7.2711,7.7698-4.4946,8.3248-7.2257L90.294,53.5576Z" transform="translate(-0.4245 18.9053)" fill="#5d6162"/><path d="M88.35239,64.3252c-.0635,0-.1261-.001-.1905-.0019-5.7607-.1076-7.6534-7.3814-7.6714-7.4549l-.055-.217,9.8797-3.3571,6.4497,3.431-.036.1777C95.99719,60.5084,93.41169,64.3252,88.35239,64.3252Zm-7.3302-7.3606c.3545,1.1767,2.3012,6.7829,7.1491,6.8734.06171.0014.1223.0019.1839.0019,5.8924,0,7.5207-5.3612,7.86-6.8573l-5.9417-3.1613Z" transform="translate(-0.4245 18.9053)" fill="#505656"/><path d="M96.49139,56.8094s1.7982,7.1659,7.44061,7.2711,7.76979-4.4946,8.32479-7.2257l-6.1974-3.2972Z" transform="translate(-0.4245 18.9053)" fill="#5d6162"/><path d="M104.11789,64.3252c-.0635,0-.1261-.001-.1905-.0019-5.7607-.1076-7.65339-7.3814-7.67139-7.4549l-.055-.217,9.87969-3.3571,6.4497,3.431-.036.1777C111.76269,60.5084,109.17719,64.3252,104.11789,64.3252Zm-7.3302-7.3606c.3545,1.1767,2.3012,6.7829,7.1491,6.8734.0616.0014.1223.0019.1839.0019,5.8924,0,7.5207-5.3612,7.86-6.8573L106.039,53.8213Z" transform="translate(-0.4245 18.9053)" fill="#505656"/><path d="M112.25679,56.8094s1.79821,7.1659,7.4406,7.2711,7.7699-4.4946,8.3249-7.2257l-6.1974-3.2972Z" transform="translate(-0.4245 18.9053)" fill="#5d6162"/><path d="M119.88339,64.3252c-.0635,0-.1261-.001-.1905-.0019-5.7607-.1076-7.6534-7.3814-7.6714-7.4549l-.055-.217,9.8788-3.3571,6.4506,3.431-.036.1777C127.52819,60.5084,124.94259,64.3252,119.88339,64.3252Zm-7.3302-7.3606c.3544,1.1767,2.3012,6.7829,7.1491,6.8734.0616.0014.1223.0019.1839.0019,5.8924,0,7.5207-5.3612,7.86-6.8573l-5.9426-3.1613Z" transform="translate(-0.4245 18.9053)" fill="#505656"/><path d="M128.02229,56.8094s1.7981,7.1659,7.4405,7.2711,7.7699-4.4946,8.3249-7.2257l-6.1974-3.2972Z" transform="translate(-0.4245 18.9053)" fill="#5d6162"/><path d="M135.64889,64.3252c-.0635,0-.1261-.001-.1906-.0019-5.7616-.1076-7.65329-7.3814-7.67129-7.4549l-.055-.217,9.87879-3.3571,6.4506,3.431-.036.1777C143.29369,60.5084,140.70809,64.3252,135.64889,64.3252Zm-7.3302-7.3606c.3544,1.1767,2.3012,6.7829,7.1491,6.8734.0616.0014.1223.0019.1839.0019,5.8924,0,7.5207-5.3612,7.86-6.8573l-5.9426-3.1613Z" transform="translate(-0.4245 18.9053)" fill="#505656"/><path d="M143.78769,56.8094s1.7982,7.1659,7.4406,7.2711,7.7698-4.4946,8.3248-7.2257l-6.1974-3.2972Z" transform="translate(-0.4245 18.9053)" fill="#5d6162"/><path d="M151.41429,64.3252c-.0635,0-.126-.001-.1905-.0019-5.7616-.1076-7.6533-7.3814-7.6713-7.4549l-.055-.217,9.8788-3.3571,6.4506,3.431-.036.1777C159.05919,60.5084,156.47359,64.3252,151.41429,64.3252Zm-7.3301-7.3606c.3544,1.1767,2.3012,6.7829,7.1491,6.8734.0616.0014.1223.0019.1839.0019,5.8924,0,7.5207-5.3612,7.86-6.8573l-5.9426-3.1613Z" transform="translate(-0.4245 18.9053)" fill="#505656"/><path d="M41.31239,51.5471s1.7982,7.1659,7.44061,7.2711,7.76989-4.4946,8.32489-7.2257l-6.1974-3.2972Z" transform="translate(-0.4245 18.9053)" fill="#5d6162"/><path d="M48.93769,59.0626c-.0626,0-.1251-.001-.1896-.0019-5.7606-.1076-7.6524-7.3809-7.6704-7.4544l-.055-.217,9.8788-3.3576,6.4507,3.432-.0361.1772C56.58249,55.2463,53.997,59.0626,48.93769,59.0626Zm-7.3283-7.3601c.3545,1.1762,2.3003,6.7824,7.1482,6.8729,6.0431.1275,7.7017-5.3431,8.0448-6.8549l-5.9426-3.1618Z" transform="translate(-0.4245 18.9053)" fill="#505656"/><path d="M57.07789,51.5471s1.79811,7.1659,7.4405,7.2711,7.7699-4.4946,8.3249-7.2257l-6.1974-3.2972Z" transform="translate(-0.4245 18.9053)" fill="#5d6162"/><path d="M64.70319,59.0626c-.0626,0-.1251-.001-.1896-.0019-5.76059-.1076-7.6524-7.3809-7.6704-7.4544l-.055-.217L66.667,48.0317l6.45059,3.432-.036.1772C72.348,55.2463,69.76249,59.0626,64.70319,59.0626Zm-7.3283-7.3601c.3545,1.1762,2.3003,6.7824,7.1482,6.8729.0616.0014.1223.0019.18291.0019,5.89239,0,7.52259-5.3607,7.86189-6.8568l-5.9426-3.1618Z" transform="translate(-0.4245 18.9053)" fill="#505656"/><path d="M72.84329,51.5471s1.7981,7.1659,7.4405,7.2711,7.7699-4.4946,8.3249-7.2257l-6.1974-3.2972Z" transform="translate(-0.4245 18.9053)" fill="#5d6162"/><path d="M80.46959,59.0626c-.0635,0-.126-.001-.1905-.0019-5.7606-.1076-7.6524-7.3809-7.6704-7.4544l-.055-.217,9.8788-3.3576,6.4497,3.4315-.036.1777C88.11449,55.2463,85.52889,59.0626,80.46959,59.0626Zm-7.3292-7.3601c.3545,1.1762,2.3003,6.7824,7.1482,6.8729.0616.0014.1223.0019.1839.0019,5.8924,0,7.5207-5.3607,7.86-6.8568l-5.9417-3.1618Z" transform="translate(-0.4245 18.9053)" fill="#505656"/><path d="M88.60869,51.5471s1.7982,7.1659,7.4406,7.2711,7.7698-4.4946,8.3248-7.2257l-6.1974-3.2972Z" transform="translate(-0.4245 18.9053)" fill="#5d6162"/><path d="M96.23509,59.0626c-.0635,0-.126-.001-.1905-.0019-5.76059-.1076-7.6534-7.3809-7.6714-7.4544l-.0549-.217L98.198,48.0317l6.44969,3.4315-.036.1777C103.88,55.2463,101.29439,59.0626,96.23509,59.0626Zm-7.3302-7.3601c.3545,1.1762,2.3013,6.7824,7.1492,6.8729.0616.0014.1223.0019.18391.0019,5.89239,0,7.52069-5.3607,7.86-6.8568l-5.94171-3.1618Z" transform="translate(-0.4245 18.9053)" fill="#505656"/><path d="M104.37409,51.5471s1.7982,7.1659,7.4406,7.2711,7.7699-4.4946,8.3248-7.2257l-6.1973-3.2972Z" transform="translate(-0.4245 18.9053)" fill="#5d6162"/><path d="M112.00059,59.0626c-.0635,0-.126-.001-.1905-.0019-5.7606-.1076-7.6534-7.3809-7.6714-7.4544l-.055-.217,9.8798-3.3576,6.4497,3.4315-.036.1777C119.64549,55.2463,117.05989,59.0626,112.00059,59.0626Zm-7.3302-7.3601c.3545,1.1762,2.3013,6.7824,7.1492,6.8729.0616.0014.1223.0019.1839.0019,5.8924,0,7.5206-5.3607,7.86-6.8568l-5.9417-3.1618Z" transform="translate(-0.4245 18.9053)" fill="#505656"/><path d="M120.13949,51.5471s1.7982,7.1659,7.4406,7.2711,7.76991-4.4946,8.32491-7.2257l-6.19741-3.2972Z" transform="translate(-0.4245 18.9053)" fill="#5d6162"/><path d="M127.76609,59.0626c-.0635,0-.126-.001-.1905-.0019-5.76059-.1076-7.6534-7.3809-7.6714-7.4544l-.055-.217,9.87881-3.3576,6.45069,3.4315-.036.1777C135.411,55.2463,132.82539,59.0626,127.76609,59.0626Zm-7.3302-7.3601c.3545,1.1762,2.3012,6.7824,7.1492,6.8729.0616.0014.1222.0019.18391.0019,5.89229,0,7.52059-5.3607,7.86-6.8568l-5.94271-3.1618Z" transform="translate(-0.4245 18.9053)" fill="#505656"/><path d="M135.905,51.5471s1.79809,7.1659,7.44049,7.2711,7.7699-4.4946,8.3249-7.2257L145.473,48.2953Z" transform="translate(-0.4245 18.9053)" fill="#5d6162"/><path d="M143.53159,59.0626c-.0635,0-.1261-.001-.1905-.0019-5.7616-.1076-7.6534-7.3809-7.6714-7.4544l-.055-.217,9.8788-3.3576,6.4507,3.4315-.0361.1777C151.17649,55.2463,148.59089,59.0626,143.53159,59.0626Zm-7.3302-7.3601c.3545,1.1762,2.3012,6.7824,7.1492,6.8729.0616.0014.1222.0019.1838.0019,5.8924,0,7.5207-5.3607,7.86-6.8568l-5.9426-3.1618Z" transform="translate(-0.4245 18.9053)" fill="#505656"/><path d="M151.67039,51.5471s1.7982,7.1659,7.44061,7.2711,7.76979-4.4946,8.32479-7.2257l-6.1974-3.2972Z" transform="translate(-0.4245 18.9053)" fill="#5d6162"/><path d="M159.29709,59.0626c-.0635,0-.12609-.001-.1905-.0019-5.76159-.1076-7.6534-7.3809-7.6714-7.4544l-.055-.217,9.87881-3.3576,6.45069,3.4315-.0361.1777C166.94189,55.2463,164.35639,59.0626,159.29709,59.0626Zm-7.3302-7.3601c.3545,1.1762,2.3012,6.7824,7.1492,6.8729.0616.0014.1222.0019.1838.0019,5.8924,0,7.5207-5.3607,7.86-6.8568l-5.9426-3.1618Z" transform="translate(-0.4245 18.9053)" fill="#505656"/><path d="M33.42969,46.2848s1.7982,7.1658,7.4406,7.2711,7.7699-4.4946,8.3248-7.2258l-6.1973-3.2971Z" transform="translate(-0.4245 18.9053)" fill="#5d6162"/><path d="M41.055,53.8005c-.06261,0-.12521-.001-.18961-.0019-5.7607-.1076-7.65239-7.3809-7.67039-7.4544l-.055-.217,9.87879-3.3576,6.4506,3.431-.036.1777C48.69979,49.9837,46.11419,53.8005,41.055,53.8005Zm-7.32831-7.3601c.3544,1.1762,2.3002,6.7824,7.1482,6.8729.0616.0014.1222.0019.1829.0019,5.8924,0,7.5226-5.3612,7.8619-6.8573l-5.9426-3.1613Z" transform="translate(-0.4245 18.9053)" fill="#505656"/><path d="M49.19509,46.2848s1.7982,7.1658,7.4406,7.2711,7.7699-4.4946,8.3249-7.2258l-6.1974-3.2971Z" transform="translate(-0.4245 18.9053)" fill="#5d6162"/><path d="M56.82039,53.8005c-.0625,0-.1251-.001-.1895-.0019-5.7607-.1076-7.6524-7.3809-7.6705-7.4544l-.0549-.217,9.8788-3.3576,6.4506,3.431-.036.1777C64.46529,49.9837,61.87969,53.8005,56.82039,53.8005Zm-7.3282-7.3601c.3544,1.1762,2.3002,6.7824,7.1482,6.8729.06161.0014.1222.0019.1829.0019,5.8924,0,7.5226-5.3612,7.8619-6.8573l-5.9426-3.1613Z" transform="translate(-0.4245 18.9053)" fill="#505656"/><path d="M64.96059,46.2848s1.7981,7.1658,7.4405,7.2711S80.171,49.0613,80.726,46.3301L74.52859,43.033Z" transform="translate(-0.4245 18.9053)" fill="#5d6162"/><path d="M72.58689,53.8005c-.0635,0-.1261-.001-.1905-.0019-5.7607-.1076-7.6525-7.3809-7.6705-7.4544l-.05489-.217,9.87879-3.3576,6.4496,3.431-.036.1777C80.23169,49.9837,77.64709,53.8005,72.58689,53.8005Zm-7.3293-7.3601c.3545,1.1762,2.3003,6.7824,7.1483,6.8729.0616.0014.1222.0019.1838.0019,5.8934,0,7.5207-5.3612,7.86-6.8573L74.508,43.2966Z" transform="translate(-0.4245 18.9053)" fill="#505656"/><path d="M80.726,46.2848s1.79819,7.1658,7.44059,7.2711,7.7698-4.4946,8.3248-7.2258L90.294,43.033Z" transform="translate(-0.4245 18.9053)" fill="#5d6162"/><path d="M88.35239,53.8005c-.0635,0-.1261-.001-.1905-.0019-5.7607-.1076-7.6534-7.3809-7.6714-7.4544l-.055-.217,9.8797-3.3576,6.4497,3.431-.036.1777C95.99719,49.9837,93.41259,53.8005,88.35239,53.8005Zm-7.3302-7.3601c.3545,1.1762,2.3012,6.7824,7.1491,6.8729.06171.0014.1223.0019.1839.0019,5.8934,0,7.5207-5.3612,7.86-6.8573l-5.9417-3.1613Z" transform="translate(-0.4245 18.9053)" fill="#505656"/><path d="M96.49139,46.2848s1.7982,7.1658,7.44061,7.2711,7.76979-4.4946,8.32479-7.2258l-6.1974-3.2971Z" transform="translate(-0.4245 18.9053)" fill="#5d6162"/><path d="M104.11789,53.8005c-.0635,0-.1261-.001-.1905-.0019-5.7607-.1076-7.65339-7.3809-7.67139-7.4544l-.055-.217,9.87969-3.3576,6.4497,3.431-.036.1777C111.76269,49.9837,109.17809,53.8005,104.11789,53.8005Zm-7.3302-7.3601c.3545,1.1762,2.3012,6.7824,7.1491,6.8729.0616.0014.1223.0019.1839.0019,5.8934,0,7.5207-5.3612,7.86-6.8573L106.039,43.2966Z" transform="translate(-0.4245 18.9053)" fill="#505656"/><path d="M112.25679,46.2848s1.79821,7.1658,7.4406,7.2711,7.7699-4.4946,8.3249-7.2258l-6.1974-3.2971Z" transform="translate(-0.4245 18.9053)" fill="#5d6162"/><path d="M119.88339,53.8005c-.0635,0-.1261-.001-.1905-.0019-5.7607-.1076-7.6534-7.3809-7.6714-7.4544l-.055-.217,9.8788-3.3576,6.4506,3.431-.036.1777C127.52819,49.9837,124.94359,53.8005,119.88339,53.8005Zm-7.3302-7.3601c.3544,1.1762,2.3012,6.7824,7.1491,6.8729.0616.0014.1223.0019.1839.0019,5.8933,0,7.5207-5.3612,7.86-6.8573l-5.9426-3.1613Z" transform="translate(-0.4245 18.9053)" fill="#505656"/><path d="M128.02229,46.2848s1.7981,7.1658,7.4405,7.2711,7.7699-4.4946,8.3249-7.2258l-6.1974-3.2971Z" transform="translate(-0.4245 18.9053)" fill="#5d6162"/><path d="M135.64889,53.8005c-.0635,0-.1261-.001-.1906-.0019-5.7616-.1076-7.65329-7.3809-7.67129-7.4544l-.055-.217,9.87879-3.3576,6.4506,3.431-.036.1777C143.29369,49.9837,140.70909,53.8005,135.64889,53.8005Zm-7.3302-7.3601c.3544,1.1762,2.3012,6.7824,7.1491,6.8729.0616.0014.1223.0019.1839.0019,5.89331,0,7.5207-5.3612,7.86-6.8573l-5.9426-3.1613Z" transform="translate(-0.4245 18.9053)" fill="#505656"/><path d="M143.78769,46.2848s1.7982,7.1658,7.4406,7.2711,7.7698-4.4946,8.3248-7.2258l-6.1974-3.2971Z" transform="translate(-0.4245 18.9053)" fill="#5d6162"/><path d="M151.41429,53.8005c-.0635,0-.126-.001-.1905-.0019-5.7616-.1076-7.6533-7.3809-7.6713-7.4544l-.055-.217,9.8788-3.3576,6.4506,3.431-.036.1777C159.05919,49.9837,156.47459,53.8005,151.41429,53.8005Zm-7.3301-7.3601c.3544,1.1762,2.3012,6.7824,7.1491,6.8729.0616.0014.1223.0019.1839.0019,5.8933,0,7.5207-5.3612,7.86-6.8573l-5.9426-3.1613Z" transform="translate(-0.4245 18.9053)" fill="#505656"/><path d="M41.31239,41.0224s1.7982,7.1659,7.44061,7.2711,7.76989-4.4945,8.32489-7.2257l-6.1974-3.2972Z" transform="translate(-0.4245 18.9053)" fill="#5d6162"/><path d="M48.93769,48.5379c-.0626,0-.1251-.001-.1896-.0019-5.7606-.1076-7.6524-7.3809-7.6704-7.4544l-.055-.217,9.8788-3.3576,6.4507,3.432-.0361.1772C56.58249,44.7216,53.997,48.5379,48.93769,48.5379Zm-7.3283-7.3601c.3545,1.1762,2.3003,6.7824,7.1482,6.8729,6.0431.1412,7.7017-5.3436,8.0448-6.8549l-5.9426-3.1618Z" transform="translate(-0.4245 18.9053)" fill="#505656"/><path d="M57.07789,41.0224s1.79811,7.1659,7.4405,7.2711,7.7699-4.4945,8.3249-7.2257l-6.1974-3.2972Z" transform="translate(-0.4245 18.9053)" fill="#5d6162"/><path d="M64.70319,48.5379c-.0626,0-.1251-.001-.1896-.0019-5.76059-.1076-7.6524-7.3809-7.6704-7.4544l-.055-.217L66.667,37.507l6.45059,3.432-.036.1772C72.348,44.7216,69.76249,48.5379,64.70319,48.5379Zm-7.3283-7.3601c.3545,1.1762,2.3003,6.7824,7.1482,6.8729.0616.0014.1223.0019.18291.0019,5.89239,0,7.52259-5.3607,7.86189-6.8568l-5.9426-3.1618Z" transform="translate(-0.4245 18.9053)" fill="#505656"/><path d="M72.84329,41.0224s1.7981,7.1659,7.4405,7.2711,7.7699-4.4945,8.3249-7.2257l-6.1974-3.2972Z" transform="translate(-0.4245 18.9053)" fill="#5d6162"/><path d="M80.46959,48.5379c-.0635,0-.126-.001-.1905-.0019-5.7606-.1076-7.6524-7.3809-7.6704-7.4544l-.055-.217,9.8788-3.3576,6.4497,3.4315-.036.1777C88.11449,44.7216,85.52889,48.5379,80.46959,48.5379Zm-7.3292-7.3601c.3545,1.1762,2.3003,6.7824,7.1482,6.8729.0616.0014.1223.0019.1839.0019,5.8924,0,7.5207-5.3607,7.86-6.8568l-5.9417-3.1618Z" transform="translate(-0.4245 18.9053)" fill="#505656"/><path d="M88.60869,41.0224s1.7982,7.1659,7.4406,7.2711,7.7698-4.4945,8.3248-7.2257l-6.1974-3.2972Z" transform="translate(-0.4245 18.9053)" fill="#5d6162"/><path d="M96.23509,48.5379c-.0635,0-.126-.001-.1905-.0019-5.76059-.1076-7.6534-7.3809-7.6714-7.4544l-.0549-.217L98.198,37.507l6.44969,3.4315-.036.1777C103.88,44.7216,101.29439,48.5379,96.23509,48.5379Zm-7.3302-7.3601c.3545,1.1762,2.3013,6.7824,7.1492,6.8729.0616.0014.1223.0019.18391.0019,5.89239,0,7.52069-5.3607,7.86-6.8568L98.15629,38.034Z" transform="translate(-0.4245 18.9053)" fill="#505656"/><path d="M104.37409,41.0224s1.7982,7.1659,7.4406,7.2711,7.7699-4.4945,8.3248-7.2257l-6.1973-3.2972Z" transform="translate(-0.4245 18.9053)" fill="#5d6162"/><path d="M112.00059,48.5379c-.0635,0-.126-.001-.1905-.0019-5.7606-.1076-7.6534-7.3809-7.6714-7.4544l-.055-.217,9.8798-3.3576,6.4497,3.4315-.036.1777C119.64549,44.7216,117.05989,48.5379,112.00059,48.5379Zm-7.3302-7.3601c.3545,1.1762,2.3013,6.7824,7.1492,6.8729.0616.0014.1223.0019.1839.0019,5.8924,0,7.5206-5.3607,7.86-6.8568l-5.9417-3.1618Z" transform="translate(-0.4245 18.9053)" fill="#505656"/><path d="M120.13949,41.0224s1.7982,7.1659,7.4406,7.2711S135.35,43.799,135.905,41.0678l-6.19741-3.2972Z" transform="translate(-0.4245 18.9053)" fill="#5d6162"/><path d="M127.76609,48.5379c-.0635,0-.126-.001-.1905-.0019-5.76059-.1076-7.6534-7.3809-7.6714-7.4544l-.055-.217L129.728,37.507l6.45069,3.4315-.036.1777C135.411,44.7216,132.82539,48.5379,127.76609,48.5379Zm-7.3302-7.3601c.3545,1.1762,2.3012,6.7824,7.1492,6.8729.0616.0014.1222.0019.18391.0019,5.89229,0,7.52059-5.3607,7.86-6.8568l-5.94271-3.1618Z" transform="translate(-0.4245 18.9053)" fill="#505656"/><path d="M135.905,41.0224s1.79809,7.1659,7.44049,7.2711,7.7699-4.4945,8.3249-7.2257L145.473,37.7706Z" transform="translate(-0.4245 18.9053)" fill="#5d6162"/><path d="M143.53159,48.5379c-.0635,0-.1261-.001-.1905-.0019-5.7616-.1076-7.6534-7.3809-7.6714-7.4544l-.055-.217,9.8788-3.3576,6.4507,3.4315-.0361.1777C151.17649,44.7216,148.59089,48.5379,143.53159,48.5379Zm-7.3302-7.3601c.3545,1.1762,2.3012,6.7824,7.1492,6.8729.0616.0014.1222.0019.1838.0019,5.8924,0,7.5207-5.3607,7.86-6.8568l-5.9426-3.1618Z" transform="translate(-0.4245 18.9053)" fill="#505656"/><path d="M151.67039,41.0224s1.7982,7.1659,7.44061,7.2711,7.76979-4.4945,8.32479-7.2257l-6.1974-3.2972Z" transform="translate(-0.4245 18.9053)" fill="#5d6162"/><path d="M159.29709,48.5379c-.0635,0-.12609-.001-.1905-.0019-5.76159-.1076-7.6534-7.3809-7.6714-7.4544l-.055-.217L161.259,37.507l6.45069,3.4315-.0361.1777C166.94189,44.7216,164.35639,48.5379,159.29709,48.5379Zm-7.3302-7.3601c.3545,1.1762,2.3012,6.7824,7.1492,6.8729.0616.0014.1222.0019.1838.0019,5.8924,0,7.5207-5.3607,7.86-6.8568l-5.9426-3.1618Z" transform="translate(-0.4245 18.9053)" fill="#505656"/><path d="M33.42969,35.7601s1.7982,7.1659,7.4406,7.2711,7.7699-4.4946,8.3248-7.2257l-6.1973-3.2972Z" transform="translate(-0.4245 18.9053)" fill="#5d6162"/><path d="M41.05589,43.2758c-.0635,0-.1261-.001-.1905-.0019-5.7607-.1076-7.65239-7.3809-7.67039-7.4544l-.055-.217,9.87879-3.3576,6.4506,3.431-.036.1777C48.69979,39.459,46.11419,43.2758,41.05589,43.2758Zm-7.3292-7.3601c.3544,1.1762,2.3002,6.7824,7.1482,6.8729.0616.0014.1222.0019.1829.0019,5.8924,0,7.5226-5.3612,7.8619-6.8573l-5.9426-3.1613Z" transform="translate(-0.4245 18.9053)" fill="#505656"/><path d="M49.19509,35.7601s1.7982,7.1659,7.4406,7.2711,7.7699-4.4946,8.3249-7.2257l-6.1974-3.2972Z" transform="translate(-0.4245 18.9053)" fill="#5d6162"/><path d="M56.82139,43.2758c-.0635,0-.1261-.001-.1905-.0019-5.7607-.1076-7.6524-7.3809-7.6705-7.4544l-.0549-.217,9.8788-3.3576,6.4506,3.431-.036.1777C64.46529,39.459,61.87969,43.2758,56.82139,43.2758Zm-7.3292-7.3601c.3544,1.1762,2.3002,6.7824,7.1482,6.8729.06161.0014.1222.0019.1829.0019,5.8924,0,7.5226-5.3612,7.8619-6.8573l-5.9426-3.1613Z" transform="translate(-0.4245 18.9053)" fill="#505656"/><path d="M64.96059,35.7601s1.7981,7.1659,7.4405,7.2711S80.171,38.5366,80.726,35.8055l-6.19741-3.2972Z" transform="translate(-0.4245 18.9053)" fill="#5d6162"/><path d="M72.58689,43.2758c-.0635,0-.1261-.001-.1905-.0019-5.7607-.1076-7.6525-7.3809-7.6705-7.4544l-.05489-.217,9.87879-3.3576,6.4496,3.431-.036.1777C80.23169,39.459,77.64709,43.2758,72.58689,43.2758Zm-7.3293-7.3601c.3545,1.1762,2.3003,6.7824,7.1483,6.8729.0616.0014.1222.0019.1838.0019,5.8934,0,7.5207-5.3612,7.86-6.8573L74.508,32.7719Z" transform="translate(-0.4245 18.9053)" fill="#505656"/><path d="M80.726,35.7601s1.79819,7.1659,7.44059,7.2711,7.7698-4.4946,8.3248-7.2257L90.294,32.5083Z" transform="translate(-0.4245 18.9053)" fill="#5d6162"/><path d="M88.35239,43.2758c-.0635,0-.1261-.001-.1905-.0019-5.7607-.1076-7.6534-7.3809-7.6714-7.4544l-.055-.217,9.8797-3.3576,6.4497,3.431-.036.1777C95.99719,39.459,93.41259,43.2758,88.35239,43.2758Zm-7.3302-7.3601c.3545,1.1762,2.3012,6.7824,7.1491,6.8729.06171.0014.1223.0019.1839.0019,5.8934,0,7.5207-5.3612,7.86-6.8573l-5.9417-3.1613Z" transform="translate(-0.4245 18.9053)" fill="#505656"/><path d="M96.49139,35.7601s1.7982,7.1659,7.44061,7.2711,7.76979-4.4946,8.32479-7.2257l-6.1974-3.2972Z" transform="translate(-0.4245 18.9053)" fill="#5d6162"/><path d="M104.11789,43.2758c-.0635,0-.1261-.001-.1905-.0019-5.7607-.1076-7.65339-7.3809-7.67139-7.4544l-.055-.217,9.87969-3.3576,6.4497,3.431-.036.1777C111.76269,39.459,109.17809,43.2758,104.11789,43.2758Zm-7.3302-7.3601c.3545,1.1762,2.3012,6.7824,7.1491,6.8729.0616.0014.1223.0019.1839.0019,5.8934,0,7.5207-5.3612,7.86-6.8573L106.039,32.7719Z" transform="translate(-0.4245 18.9053)" fill="#505656"/><path d="M112.25679,35.7601s1.79821,7.1659,7.4406,7.2711,7.7699-4.4946,8.3249-7.2257l-6.1974-3.2972Z" transform="translate(-0.4245 18.9053)" fill="#5d6162"/><path d="M119.88339,43.2758c-.0635,0-.1261-.001-.1905-.0019-5.7607-.1076-7.6534-7.3809-7.6714-7.4544l-.055-.217,9.8788-3.3576,6.4506,3.431-.036.1777C127.52819,39.459,124.94359,43.2758,119.88339,43.2758Zm-7.3302-7.3601c.3544,1.1762,2.3012,6.7824,7.1491,6.8729.0616.0014.1223.0019.1839.0019,5.8933,0,7.5207-5.3612,7.86-6.8573l-5.9426-3.1613Z" transform="translate(-0.4245 18.9053)" fill="#505656"/><path d="M128.02229,35.7601s1.7981,7.1659,7.4405,7.2711,7.7699-4.4946,8.3249-7.2257l-6.1974-3.2972Z" transform="translate(-0.4245 18.9053)" fill="#5d6162"/><path d="M135.64889,43.2758c-.0635,0-.1261-.001-.1906-.0019-5.7616-.1076-7.65329-7.3809-7.67129-7.4544l-.055-.217,9.87879-3.3576,6.4506,3.431-.036.1777C143.29369,39.459,140.70909,43.2758,135.64889,43.2758Zm-7.3302-7.3601c.3544,1.1762,2.3012,6.7824,7.1491,6.8729.0616.0014.1223.0019.1839.0019,5.89331,0,7.5207-5.3612,7.86-6.8573l-5.9426-3.1613Z" transform="translate(-0.4245 18.9053)" fill="#505656"/><path d="M143.78769,35.7601s1.7982,7.1659,7.4406,7.2711,7.7698-4.4946,8.3248-7.2257l-6.1974-3.2972Z" transform="translate(-0.4245 18.9053)" fill="#5d6162"/><path d="M151.41429,43.2758c-.0635,0-.126-.001-.1905-.0019-5.7616-.1076-7.6533-7.3809-7.6713-7.4544l-.055-.217,9.8788-3.3576,6.4506,3.431-.036.1777C159.05919,39.459,156.47459,43.2758,151.41429,43.2758Zm-7.3301-7.3601c.3544,1.1762,2.3012,6.7824,7.1491,6.8729.0616.0014.1223.0019.1839.0019,5.8933,0,7.5207-5.3612,7.86-6.8573l-5.9426-3.1613Z" transform="translate(-0.4245 18.9053)" fill="#505656"/><path d="M41.31239,30.4978s1.7982,7.1658,7.44061,7.2711,7.76989-4.4946,8.32489-7.2257l-6.1974-3.2972Z" transform="translate(-0.4245 18.9053)" fill="#5d6162"/><path d="M48.93859,38.0132c-.0635,0-.126-.001-.1905-.0019-5.7606-.1076-7.6524-7.3809-7.6704-7.4544l-.055-.217,9.8788-3.3576,6.4507,3.432-.0361.1772C56.58249,34.1969,53.997,38.0132,48.93859,38.0132Zm-7.3292-7.3601c.3545,1.1762,2.3003,6.7824,7.1482,6.8729.0616.0014.1232.0019.1839.0019,5.8924,0,7.5216-5.3607,7.8609-6.8568l-5.9426-3.1618Z" transform="translate(-0.4245 18.9053)" fill="#505656"/><path d="M57.07789,30.4978s1.79811,7.1658,7.4405,7.2711,7.7699-4.4946,8.3249-7.2257l-6.1974-3.2972Z" transform="translate(-0.4245 18.9053)" fill="#5d6162"/><path d="M64.70409,38.0132c-.0635,0-.126-.001-.1905-.0019-5.76059-.1076-7.6524-7.3809-7.6704-7.4544l-.055-.217L66.667,26.9823l6.45059,3.432-.036.1772C72.348,34.1969,69.76249,38.0132,64.70409,38.0132Zm-7.3292-7.3601c.3545,1.1762,2.3003,6.7824,7.1482,6.8729.0616.0014.1232.0019.18391.0019,5.89239,0,7.52159-5.3607,7.86089-6.8568l-5.9426-3.1618Z" transform="translate(-0.4245 18.9053)" fill="#505656"/><path d="M72.84329,30.4978s1.7981,7.1658,7.4405,7.2711,7.7699-4.4946,8.3249-7.2257l-6.1974-3.2972Z" transform="translate(-0.4245 18.9053)" fill="#5d6162"/><path d="M80.46959,38.0132c-.0635,0-.126-.001-.1905-.0019-5.7606-.1076-7.6524-7.3809-7.6704-7.4544l-.055-.217,9.8788-3.3576,6.4497,3.4315-.036.1777C88.11449,34.1969,85.52989,38.0132,80.46959,38.0132Zm-7.3292-7.3601c.3545,1.1762,2.3003,6.7824,7.1482,6.8729.0616.0014.1232.0019.1839.0019,5.8933,0,7.5207-5.3607,7.86-6.8568l-5.9417-3.1618Z" transform="translate(-0.4245 18.9053)" fill="#505656"/><path d="M88.60869,30.4978s1.7982,7.1658,7.4406,7.2711,7.7698-4.4946,8.3248-7.2257l-6.1974-3.2972Z" transform="translate(-0.4245 18.9053)" fill="#5d6162"/><path d="M96.23509,38.0132c-.0635,0-.126-.001-.1905-.0019-5.76059-.1076-7.6534-7.3809-7.6714-7.4544l-.0549-.217L98.198,26.9823l6.44969,3.4315-.036.1777C103.88,34.1969,101.29539,38.0132,96.23509,38.0132Zm-7.3302-7.3601c.3545,1.1762,2.3013,6.7824,7.1492,6.8729.0616.0014.1232.0019.18391.0019,5.89329,0,7.52069-5.3607,7.86-6.8568l-5.94171-3.1618Z" transform="translate(-0.4245 18.9053)" fill="#505656"/><path d="M104.37409,30.4978s1.7982,7.1658,7.4406,7.2711,7.7699-4.4946,8.3248-7.2257l-6.1973-3.2972Z" transform="translate(-0.4245 18.9053)" fill="#5d6162"/><path d="M112.00059,38.0132c-.0635,0-.126-.001-.1905-.0019-5.7606-.1076-7.6534-7.3809-7.6714-7.4544l-.055-.217,9.8798-3.3576,6.4497,3.4315-.036.1777C119.64549,34.1969,117.06089,38.0132,112.00059,38.0132Zm-7.3302-7.3601c.3545,1.1762,2.3013,6.7824,7.1492,6.8729.0616.0014.1232.0019.1839.0019,5.8933,0,7.5206-5.3607,7.86-6.8568l-5.9417-3.1618Z" transform="translate(-0.4245 18.9053)" fill="#505656"/><path d="M120.13949,30.4978s1.7982,7.1658,7.4406,7.2711,7.76991-4.4946,8.32491-7.2257l-6.19741-3.2972Z" transform="translate(-0.4245 18.9053)" fill="#5d6162"/><path d="M127.76609,38.0132c-.0635,0-.126-.001-.1905-.0019-5.76059-.1076-7.6534-7.3809-7.6714-7.4544l-.055-.217,9.87881-3.3576,6.45069,3.4315-.036.1777C135.411,34.1969,132.82629,38.0132,127.76609,38.0132Zm-7.3302-7.3601c.3545,1.1762,2.3012,6.7824,7.1492,6.8729.0616.0014.1232.0019.18391.0019,5.89329,0,7.52059-5.3607,7.86-6.8568l-5.94271-3.1618Z" transform="translate(-0.4245 18.9053)" fill="#505656"/><path d="M135.905,30.4978s1.79809,7.1658,7.44049,7.2711,7.7699-4.4946,8.3249-7.2257L145.473,27.246Z" transform="translate(-0.4245 18.9053)" fill="#5d6162"/><path d="M143.53159,38.0132c-.0635,0-.1261-.001-.1905-.0019-5.7616-.1076-7.6534-7.3809-7.6714-7.4544l-.055-.217,9.8788-3.3576,6.4507,3.4315-.0361.1777C151.17649,34.1969,148.59179,38.0132,143.53159,38.0132Zm-7.3302-7.3601c.3545,1.1762,2.3012,6.7824,7.1492,6.8729.0616.0014.1232.0019.1838.0019,5.8934,0,7.5207-5.3607,7.86-6.8568l-5.9426-3.1618Z" transform="translate(-0.4245 18.9053)" fill="#505656"/><path d="M151.67039,30.4978s1.7982,7.1658,7.44061,7.2711,7.76979-4.4946,8.32479-7.2257l-6.1974-3.2972Z" transform="translate(-0.4245 18.9053)" fill="#5d6162"/><path d="M159.29709,38.0132c-.0635,0-.12609-.001-.1905-.0019-5.76159-.1076-7.6534-7.3809-7.6714-7.4544l-.055-.217,9.87881-3.3576,6.45069,3.4315-.0361.1777C166.94189,34.1969,164.35729,38.0132,159.29709,38.0132Zm-7.3302-7.3601c.3545,1.1762,2.3012,6.7824,7.1492,6.8729.0616.0014.1232.0019.1838.0019,5.8934,0,7.5207-5.3607,7.86-6.8568l-5.9426-3.1618Z" transform="translate(-0.4245 18.9053)" fill="#505656"/><path d="M33.42969,25.2355s1.7982,7.1658,7.4406,7.271,7.7699-4.4945,8.3248-7.2257l-6.1973-3.2971Z" transform="translate(-0.4245 18.9053)" fill="#5d6162"/><path d="M41.055,32.751c-.06261,0-.12521-.0009-.18961-.0018-5.7607-.1076-7.65239-7.3809-7.67039-7.4544l-.055-.217,9.87879-3.3576,6.4506,3.431-.036.1777C48.69979,28.9343,46.11419,32.751,41.055,32.751Zm-7.32831-7.36c.3544,1.1762,2.3002,6.7824,7.1482,6.8729.0616.0014.1222.0019.1829.0019,5.8924,0,7.5226-5.3612,7.8619-6.8573l-5.9426-3.1613Z" transform="translate(-0.4245 18.9053)" fill="#505656"/><path d="M49.19509,25.2355s1.7982,7.1658,7.4406,7.271,7.7699-4.4945,8.3249-7.2257l-6.1974-3.2971Z" transform="translate(-0.4245 18.9053)" fill="#5d6162"/><path d="M56.82039,32.751c-.0625,0-.1251-.0009-.1895-.0018-5.7607-.1076-7.6524-7.3809-7.6705-7.4544l-.0549-.217,9.8788-3.3576,6.4506,3.431-.036.1777C64.46529,28.9343,61.87969,32.751,56.82039,32.751Zm-7.3282-7.36c.3544,1.1762,2.3002,6.7824,7.1482,6.8729.06161.0014.1222.0019.1829.0019,5.8924,0,7.5226-5.3612,7.8619-6.8573l-5.9426-3.1613Z" transform="translate(-0.4245 18.9053)" fill="#505656"/><path d="M64.96059,25.2355s1.7981,7.1658,7.4405,7.271S80.171,28.012,80.726,25.2808l-6.19741-3.2971Z" transform="translate(-0.4245 18.9053)" fill="#5d6162"/><path d="M72.58689,32.751c-.0635,0-.1261-.0009-.1905-.0018-5.7607-.1076-7.6525-7.3809-7.6705-7.4544l-.05489-.217,9.87879-3.3576,6.4496,3.431-.036.1777C80.23169,28.9343,77.64709,32.751,72.58689,32.751Zm-7.3293-7.36c.3545,1.1762,2.3003,6.7824,7.1483,6.8729.0616.0014.1222.0019.1838.0019,5.8934,0,7.5207-5.3612,7.86-6.8573L74.508,22.2472Z" transform="translate(-0.4245 18.9053)" fill="#505656"/><path d="M80.726,25.2355s1.79819,7.1658,7.44059,7.271,7.7698-4.4945,8.3248-7.2257L90.294,21.9837Z" transform="translate(-0.4245 18.9053)" fill="#5d6162"/><path d="M88.35239,32.751c-.0635,0-.1261-.0009-.1905-.0018-5.7607-.1076-7.6534-7.3809-7.6714-7.4544l-.055-.217,9.8797-3.3576,6.4497,3.431-.036.1777C95.99719,28.9343,93.41259,32.751,88.35239,32.751Zm-7.3302-7.36c.3545,1.1762,2.3012,6.7824,7.1491,6.8729.06171.0014.1223.0019.1839.0019,5.8934,0,7.5207-5.3612,7.86-6.8573l-5.9417-3.1613Z" transform="translate(-0.4245 18.9053)" fill="#505656"/><path d="M96.49139,25.2355s1.7982,7.1658,7.44061,7.271,7.76979-4.4945,8.32479-7.2257l-6.1974-3.2971Z" transform="translate(-0.4245 18.9053)" fill="#5d6162"/><path d="M104.11789,32.751c-.0635,0-.1261-.0009-.1905-.0018-5.7607-.1076-7.65339-7.3809-7.67139-7.4544l-.055-.217,9.87969-3.3576,6.4497,3.431-.036.1777C111.76269,28.9343,109.17809,32.751,104.11789,32.751Zm-7.3302-7.36c.3545,1.1762,2.3012,6.7824,7.1491,6.8729.0616.0014.1223.0019.1839.0019,5.8934,0,7.5207-5.3612,7.86-6.8573L106.039,22.2472Z" transform="translate(-0.4245 18.9053)" fill="#505656"/><path d="M112.25679,25.2355s1.79821,7.1658,7.4406,7.271,7.7699-4.4945,8.3249-7.2257l-6.1974-3.2971Z" transform="translate(-0.4245 18.9053)" fill="#5d6162"/><path d="M119.88339,32.751c-.0635,0-.1261-.0009-.1905-.0018-5.7607-.1076-7.6534-7.3809-7.6714-7.4544l-.055-.217,9.8788-3.3576,6.4506,3.431-.036.1777C127.52819,28.9343,124.94359,32.751,119.88339,32.751Zm-7.3302-7.36c.3544,1.1762,2.3012,6.7824,7.1491,6.8729.0616.0014.1223.0019.1839.0019,5.8933,0,7.5207-5.3612,7.86-6.8573l-5.9426-3.1613Z" transform="translate(-0.4245 18.9053)" fill="#505656"/><path d="M128.02229,25.2355s1.7981,7.1658,7.4405,7.271,7.7699-4.4945,8.3249-7.2257l-6.1974-3.2971Z" transform="translate(-0.4245 18.9053)" fill="#5d6162"/><path d="M135.64889,32.751c-.0635,0-.1261-.0009-.1906-.0018-5.7616-.1076-7.65329-7.3809-7.67129-7.4544l-.055-.217,9.87879-3.3576,6.4506,3.431-.036.1777C143.29369,28.9343,140.70909,32.751,135.64889,32.751Zm-7.3302-7.36c.3544,1.1762,2.3012,6.7824,7.1491,6.8729.0616.0014.1223.0019.1839.0019,5.89331,0,7.5207-5.3612,7.86-6.8573l-5.9426-3.1613Z" transform="translate(-0.4245 18.9053)" fill="#505656"/><path d="M143.78769,25.2355s1.7982,7.1658,7.4406,7.271,7.7698-4.4945,8.3248-7.2257l-6.1974-3.2971Z" transform="translate(-0.4245 18.9053)" fill="#5d6162"/><path d="M151.41429,32.751c-.0635,0-.126-.0009-.1905-.0018-5.7616-.1076-7.6533-7.3809-7.6713-7.4544l-.055-.217,9.8788-3.3576,6.4506,3.431-.036.1777C159.05919,28.9343,156.47459,32.751,151.41429,32.751Zm-7.3301-7.36c.3544,1.1762,2.3012,6.7824,7.1491,6.8729.0616.0014.1223.0019.1839.0019,5.8933,0,7.5207-5.3612,7.86-6.8573l-5.9426-3.1613Z" transform="translate(-0.4245 18.9053)" fill="#505656"/><path d="M41.31239,19.9731s1.7982,7.1659,7.44061,7.2711,7.76989-4.4946,8.32489-7.2257l-6.1974-3.2972Z" transform="translate(-0.4245 18.9053)" fill="#5d6162"/><path d="M48.93769,27.4889c-.0626,0-.1251-.0009-.1896-.0019-5.7606-.1075-7.6524-7.3813-7.6704-7.4548l-.055-.217,9.8788-3.3576,6.4507,3.432-.0361.1772C56.58249,23.6722,53.997,27.4889,48.93769,27.4889Zm-7.3283-7.3605c.3545,1.1767,2.3003,6.7829,7.1482,6.8734.0616.0014.1223.0019.1829.0019,5.8924,0,7.5226-5.3612,7.8619-6.8573l-5.9426-3.1618Z" transform="translate(-0.4245 18.9053)" fill="#505656"/><path d="M57.07789,19.9731s1.79811,7.1659,7.4405,7.2711,7.7699-4.4946,8.3249-7.2257l-6.1974-3.2972Z" transform="translate(-0.4245 18.9053)" fill="#5d6162"/><path d="M64.70319,27.4889c-.0626,0-.1251-.0009-.1896-.0019-5.76059-.1075-7.6524-7.3813-7.6704-7.4548l-.055-.217L66.667,16.4576l6.45059,3.432-.036.1772C72.348,23.6722,69.76249,27.4889,64.70319,27.4889Zm-7.3283-7.3605c.3545,1.1767,2.3003,6.7829,7.1482,6.8734.0616.0014.1223.0019.18291.0019,5.89239,0,7.52259-5.3612,7.86189-6.8573l-5.9426-3.1618Z" transform="translate(-0.4245 18.9053)" fill="#505656"/><path d="M72.84329,19.9731s1.7981,7.1659,7.4405,7.2711,7.7699-4.4946,8.3249-7.2257l-6.1974-3.2972Z" transform="translate(-0.4245 18.9053)" fill="#5d6162"/><path d="M80.46959,27.4889c-.0635,0-.126-.0009-.1905-.0019-5.7606-.1075-7.6524-7.3813-7.6704-7.4548l-.055-.217,9.8788-3.3576,6.4497,3.4315-.036.1777C88.11449,23.6722,85.52889,27.4889,80.46959,27.4889Zm-7.3292-7.3605c.3545,1.1767,2.3003,6.7829,7.1482,6.8734.0616.0014.1223.0019.1839.0019,5.8924,0,7.5207-5.3612,7.86-6.8573l-5.9417-3.1618Z" transform="translate(-0.4245 18.9053)" fill="#505656"/><path d="M88.60869,19.9731s1.7982,7.1659,7.4406,7.2711,7.7698-4.4946,8.3248-7.2257l-6.1974-3.2972Z" transform="translate(-0.4245 18.9053)" fill="#5d6162"/><path d="M96.23509,27.4889c-.0635,0-.126-.0009-.1905-.0019-5.76059-.1075-7.6534-7.3813-7.6714-7.4548l-.0549-.217L98.198,16.4576l6.44969,3.4315-.036.1777C103.88,23.6722,101.29439,27.4889,96.23509,27.4889Zm-7.3302-7.3605c.3545,1.1767,2.3013,6.7829,7.1492,6.8734.0616.0014.1223.0019.18391.0019,5.89239,0,7.52069-5.3612,7.86-6.8573l-5.94171-3.1618Z" transform="translate(-0.4245 18.9053)" fill="#505656"/><path d="M104.37409,19.9731s1.7982,7.1659,7.4406,7.2711,7.7699-4.4946,8.3248-7.2257l-6.1973-3.2972Z" transform="translate(-0.4245 18.9053)" fill="#5d6162"/><path d="M112.00059,27.4889c-.0635,0-.126-.0009-.1905-.0019-5.7606-.1075-7.6534-7.3813-7.6714-7.4548l-.055-.217,9.8798-3.3576,6.4497,3.4315-.036.1777C119.64549,23.6722,117.05989,27.4889,112.00059,27.4889Zm-7.3302-7.3605c.3545,1.1767,2.3013,6.7829,7.1492,6.8734.0616.0014.1223.0019.1839.0019,5.8924,0,7.5206-5.3612,7.86-6.8573l-5.9417-3.1618Z" transform="translate(-0.4245 18.9053)" fill="#505656"/><path d="M120.13949,19.9731s1.7982,7.1659,7.4406,7.2711,7.76991-4.4946,8.32491-7.2257l-6.19741-3.2972Z" transform="translate(-0.4245 18.9053)" fill="#5d6162"/><path d="M127.76609,27.4889c-.0635,0-.126-.0009-.1905-.0019-5.76059-.1075-7.6534-7.3813-7.6714-7.4548l-.055-.217,9.87881-3.3576,6.45069,3.4315-.036.1777C135.411,23.6722,132.82539,27.4889,127.76609,27.4889Zm-7.3302-7.3605c.3545,1.1767,2.3012,6.7829,7.1492,6.8734.0616.0014.1222.0019.18391.0019,5.89229,0,7.52059-5.3612,7.86-6.8573l-5.94271-3.1618Z" transform="translate(-0.4245 18.9053)" fill="#505656"/><path d="M135.905,19.9731s1.79809,7.1659,7.44049,7.2711,7.7699-4.4946,8.3249-7.2257L145.473,16.7213Z" transform="translate(-0.4245 18.9053)" fill="#5d6162"/><path d="M143.53159,27.4889c-.0635,0-.1261-.0009-.1905-.0019-5.7616-.1075-7.6534-7.3813-7.6714-7.4548l-.055-.217,9.8788-3.3576,6.4507,3.4315-.0361.1777C151.17649,23.6722,148.59089,27.4889,143.53159,27.4889Zm-7.3302-7.3605c.3545,1.1767,2.3012,6.7829,7.1492,6.8734.0616.0014.1222.0019.1838.0019,5.8924,0,7.5207-5.3612,7.86-6.8573l-5.9426-3.1618Z" transform="translate(-0.4245 18.9053)" fill="#505656"/><path d="M151.67039,19.9731s1.7982,7.1659,7.44061,7.2711,7.76979-4.4946,8.32479-7.2257l-6.1974-3.2972Z" transform="translate(-0.4245 18.9053)" fill="#5d6162"/><path d="M159.29709,27.4889c-.0635,0-.12609-.0009-.1905-.0019-5.76159-.1075-7.6534-7.3813-7.6714-7.4548l-.055-.217,9.87881-3.3576,6.45069,3.4315-.0361.1777C166.94189,23.6722,164.35639,27.4889,159.29709,27.4889Zm-7.3302-7.3605c.3545,1.1767,2.3012,6.7829,7.1492,6.8734.0616.0014.1222.0019.1838.0019,5.8924,0,7.5207-5.3612,7.86-6.8573l-5.9426-3.1618Z" transform="translate(-0.4245 18.9053)" fill="#505656"/><path d="M33.42969,14.7108s1.7982,7.1658,7.4406,7.2711,7.7699-4.4946,8.3248-7.2257l-6.1973-3.2972Z" transform="translate(-0.4245 18.9053)" fill="#5d6162"/><path d="M41.055,22.2263c-.06261,0-.12521-.0009-.18961-.0019-5.7607-.1075-7.65239-7.3808-7.67039-7.4543l-.055-.217,9.87879-3.3576,6.4506,3.432-.036.1772C48.69979,18.4101,46.11419,22.2263,41.055,22.2263Zm-7.32831-7.36c.3544,1.1762,2.3002,6.7824,7.1482,6.8729,6.0658.1294,7.7017-5.3432,8.0448-6.8549l-5.9426-3.1618Z" transform="translate(-0.4245 18.9053)" fill="#505656"/><path d="M49.19509,14.7108s1.7982,7.1658,7.4406,7.2711,7.7699-4.4946,8.3249-7.2257l-6.1974-3.2972Z" transform="translate(-0.4245 18.9053)" fill="#5d6162"/><path d="M56.82039,22.2263c-.0625,0-.1251-.0009-.1895-.0019-5.7607-.1075-7.6524-7.3808-7.6705-7.4543l-.0549-.217,9.8788-3.3576,6.4506,3.432-.036.1772C64.46529,18.4101,61.87969,22.2263,56.82039,22.2263Zm-7.3282-7.36c.3544,1.1762,2.3002,6.7824,7.1482,6.8729,6.0667.1294,7.70261-5.3432,8.0448-6.8549l-5.9426-3.1618Z" transform="translate(-0.4245 18.9053)" fill="#505656"/><path d="M64.96059,14.7108s1.7981,7.1658,7.4405,7.2711S80.171,17.4873,80.726,14.7562L74.52859,11.459Z" transform="translate(-0.4245 18.9053)" fill="#5d6162"/><path d="M72.58689,22.2263c-.0635,0-.1261-.0009-.1905-.0019-5.7607-.1075-7.6525-7.3808-7.6705-7.4543l-.05489-.217,9.87879-3.3576,6.4496,3.4315-.036.1777C80.23169,18.4101,77.64619,22.2263,72.58689,22.2263Zm-7.3293-7.36c.3545,1.1762,2.3003,6.7824,7.1483,6.8729.0616.0014.1222.0019.1838.0019,5.8924,0,7.5207-5.3607,7.86-6.8568L74.508,11.7225Z" transform="translate(-0.4245 18.9053)" fill="#505656"/><path d="M80.726,14.7108s1.79819,7.1658,7.44059,7.2711,7.7698-4.4946,8.3248-7.2257L90.294,11.459Z" transform="translate(-0.4245 18.9053)" fill="#5d6162"/><path d="M88.35239,22.2263c-.0635,0-.1261-.0009-.1905-.0019-5.7607-.1075-7.6534-7.3808-7.6714-7.4543l-.055-.217,9.8797-3.3576,6.4497,3.4315-.036.1777C95.99719,18.4101,93.41169,22.2263,88.35239,22.2263Zm-7.3302-7.36c.3545,1.1762,2.3012,6.7824,7.1491,6.8729.06171.0014.1223.0019.1839.0019,5.8924,0,7.5207-5.3607,7.86-6.8568l-5.9417-3.1618Z" transform="translate(-0.4245 18.9053)" fill="#505656"/><path d="M96.49139,14.7108s1.7982,7.1658,7.44061,7.2711,7.76979-4.4946,8.32479-7.2257l-6.1974-3.2972Z" transform="translate(-0.4245 18.9053)" fill="#5d6162"/><path d="M104.11789,22.2263c-.0635,0-.1261-.0009-.1905-.0019-5.7607-.1075-7.65339-7.3808-7.67139-7.4543l-.055-.217,9.87969-3.3576,6.4497,3.4315-.036.1777C111.76269,18.4101,109.17719,22.2263,104.11789,22.2263Zm-7.3302-7.36c.3545,1.1762,2.3012,6.7824,7.1491,6.8729.0616.0014.1223.0019.1839.0019,5.8924,0,7.5207-5.3607,7.86-6.8568L106.039,11.7225Z" transform="translate(-0.4245 18.9053)" fill="#505656"/><path d="M112.25679,14.7108s1.79821,7.1658,7.4406,7.2711,7.7699-4.4946,8.3249-7.2257l-6.1974-3.2972Z" transform="translate(-0.4245 18.9053)" fill="#5d6162"/><path d="M119.88339,22.2263c-.0635,0-.1261-.0009-.1905-.0019-5.7607-.1075-7.6534-7.3808-7.6714-7.4543l-.055-.217,9.8788-3.3576,6.4506,3.4315-.036.1777C127.52819,18.4101,124.94259,22.2263,119.88339,22.2263Zm-7.3302-7.36c.3544,1.1762,2.3012,6.7824,7.1491,6.8729.0616.0014.1223.0019.1839.0019,5.8924,0,7.5207-5.3607,7.86-6.8568l-5.9426-3.1618Z" transform="translate(-0.4245 18.9053)" fill="#505656"/><path d="M128.02229,14.7108s1.7981,7.1658,7.4405,7.2711,7.7699-4.4946,8.3249-7.2257l-6.1974-3.2972Z" transform="translate(-0.4245 18.9053)" fill="#5d6162"/><path d="M135.64889,22.2263c-.0635,0-.1261-.0009-.1906-.0019-5.7616-.1075-7.65329-7.3808-7.67129-7.4543l-.055-.217,9.87879-3.3576,6.4506,3.4315-.036.1777C143.29369,18.4101,140.70809,22.2263,135.64889,22.2263Zm-7.3302-7.36c.3544,1.1762,2.3012,6.7824,7.1491,6.8729.0616.0014.1223.0019.1839.0019,5.8924,0,7.5207-5.3607,7.86-6.8568l-5.9426-3.1618Z" transform="translate(-0.4245 18.9053)" fill="#505656"/><path d="M143.78769,14.7108s1.7982,7.1658,7.4406,7.2711,7.7698-4.4946,8.3248-7.2257l-6.1974-3.2972Z" transform="translate(-0.4245 18.9053)" fill="#5d6162"/><path d="M151.41429,22.2263c-.0635,0-.126-.0009-.1905-.0019-5.7616-.1075-7.6533-7.3808-7.6713-7.4543l-.055-.217,9.8788-3.3576,6.4506,3.4315-.036.1777C159.05919,18.4101,156.47359,22.2263,151.41429,22.2263Zm-7.3301-7.36c.3544,1.1762,2.3012,6.7824,7.1491,6.8729.0616.0014.1223.0019.1839.0019,5.8924,0,7.5207-5.3607,7.86-6.8568l-5.9426-3.1618Z" transform="translate(-0.4245 18.9053)" fill="#505656"/><path d="M41.31239,9.4485s1.7982,7.1658,7.44061,7.271,7.76989-4.4945,8.32489-7.2257l-6.1974-3.2971Z" transform="translate(-0.4245 18.9053)" fill="#5d6162"/><path d="M48.93769,16.9642c-.0626,0-.1251-.0009-.1896-.0019-5.7606-.1075-7.6524-7.3813-7.6704-7.4548l-.055-.217,9.8788-3.3571,6.4507,3.431-.0361.1777C56.58249,13.1475,53.997,16.9642,48.93769,16.9642Zm-7.3283-7.3605c.3545,1.1767,2.3003,6.7829,7.1482,6.8734,6.0431.136,7.7017-5.3441,8.0448-6.8554l-5.9426-3.1613Z" transform="translate(-0.4245 18.9053)" fill="#505656"/><path d="M57.07789,9.4485s1.79811,7.1658,7.4405,7.271,7.7699-4.4945,8.3249-7.2257l-6.1974-3.2971Z" transform="translate(-0.4245 18.9053)" fill="#5d6162"/><path d="M64.70319,16.9642c-.0626,0-.1251-.0009-.1896-.0019-5.76059-.1075-7.6524-7.3813-7.6704-7.4548l-.055-.217L66.667,5.9334l6.45059,3.431-.036.1777C72.348,13.1475,69.76249,16.9642,64.70319,16.9642Zm-7.3283-7.3605c.3545,1.1767,2.3003,6.7829,7.1482,6.8734.0616.0014.1223.0019.18291.0019,5.89239,0,7.52259-5.3612,7.86189-6.8573l-5.9426-3.1613Z" transform="translate(-0.4245 18.9053)" fill="#505656"/><path d="M72.84329,9.4485s1.7981,7.1658,7.4405,7.271,7.7699-4.4945,8.3249-7.2257l-6.1974-3.2971Z" transform="translate(-0.4245 18.9053)" fill="#5d6162"/><path d="M80.46959,16.9642c-.0635,0-.126-.0009-.1905-.0019-5.7606-.1075-7.6524-7.3813-7.6704-7.4548l-.055-.217,9.8788-3.3571,6.4497,3.431-.036.1777C88.11449,13.1475,85.52889,16.9642,80.46959,16.9642Zm-7.3292-7.3605c.3545,1.1767,2.3003,6.7829,7.1482,6.8734.0616.0014.1223.0019.1839.0019,5.8924,0,7.5207-5.3612,7.86-6.8573l-5.9417-3.1613Z" transform="translate(-0.4245 18.9053)" fill="#505656"/><path d="M88.60869,9.4485s1.7982,7.1658,7.4406,7.271,7.7698-4.4945,8.3248-7.2257l-6.1974-3.2971Z" transform="translate(-0.4245 18.9053)" fill="#5d6162"/><path d="M96.23509,16.9642c-.0635,0-.126-.0009-.1905-.0019-5.76059-.1075-7.6534-7.3813-7.6714-7.4548l-.0549-.217L98.198,5.9334l6.44969,3.431-.036.1777C103.88,13.1475,101.29439,16.9642,96.23509,16.9642Zm-7.3302-7.3605c.3545,1.1767,2.3013,6.7829,7.1492,6.8734.0616.0014.1223.0019.18391.0019,5.89239,0,7.52069-5.3612,7.86-6.8573L98.15629,6.4604Z" transform="translate(-0.4245 18.9053)" fill="#505656"/><path d="M104.37409,9.4485s1.7982,7.1658,7.4406,7.271,7.7699-4.4945,8.3248-7.2257l-6.1973-3.2971Z" transform="translate(-0.4245 18.9053)" fill="#5d6162"/><path d="M112.00059,16.9642c-.0635,0-.126-.0009-.1905-.0019-5.7606-.1075-7.6534-7.3813-7.6714-7.4548l-.055-.217,9.8798-3.3571,6.4497,3.431-.036.1777C119.64549,13.1475,117.05989,16.9642,112.00059,16.9642Zm-7.3302-7.3605c.3545,1.1767,2.3013,6.7829,7.1492,6.8734.0616.0014.1223.0019.1839.0019,5.8924,0,7.5206-5.3612,7.86-6.8573l-5.9417-3.1613Z" transform="translate(-0.4245 18.9053)" fill="#505656"/><path d="M120.13949,9.4485s1.7982,7.1658,7.4406,7.271S135.35,12.225,135.905,9.4938l-6.19741-3.2971Z" transform="translate(-0.4245 18.9053)" fill="#5d6162"/><path d="M127.76609,16.9642c-.0635,0-.126-.0009-.1905-.0019-5.76059-.1075-7.6534-7.3813-7.6714-7.4548l-.055-.217L129.728,5.9334l6.45069,3.431-.036.1777C135.411,13.1475,132.82539,16.9642,127.76609,16.9642Zm-7.3302-7.3605c.3545,1.1767,2.3012,6.7829,7.1492,6.8734.0616.0014.1222.0019.18391.0019,5.89229,0,7.52059-5.3612,7.86-6.8573l-5.94271-3.1613Z" transform="translate(-0.4245 18.9053)" fill="#505656"/><path d="M135.905,9.4485s1.79809,7.1658,7.44049,7.271,7.7699-4.4945,8.3249-7.2257L145.473,6.1967Z" transform="translate(-0.4245 18.9053)" fill="#5d6162"/><path d="M143.53159,16.9642c-.0635,0-.1261-.0009-.1905-.0019-5.7616-.1075-7.6534-7.3813-7.6714-7.4548l-.055-.217,9.8788-3.3571,6.4507,3.431-.0361.1777C151.17649,13.1475,148.59089,16.9642,143.53159,16.9642Zm-7.3302-7.3605c.3545,1.1767,2.3012,6.7829,7.1492,6.8734.0616.0014.1222.0019.1838.0019,5.8924,0,7.5207-5.3612,7.86-6.8573l-5.9426-3.1613Z" transform="translate(-0.4245 18.9053)" fill="#505656"/><path d="M151.67039,9.4485s1.7982,7.1658,7.44061,7.271,7.76979-4.4945,8.32479-7.2257l-6.1974-3.2971Z" transform="translate(-0.4245 18.9053)" fill="#5d6162"/><path d="M159.29709,16.9642c-.0635,0-.12609-.0009-.1905-.0019-5.76159-.1075-7.6534-7.3813-7.6714-7.4548l-.055-.217L161.259,5.9334l6.45069,3.431-.0361.1777C166.94189,13.1475,164.35639,16.9642,159.29709,16.9642Zm-7.3302-7.3605c.3545,1.1767,2.3012,6.7829,7.1492,6.8734.0616.0014.1222.0019.1838.0019,5.8924,0,7.5207-5.3612,7.86-6.8573l-5.9426-3.1613Z" transform="translate(-0.4245 18.9053)" fill="#505656"/><path d="M33.42969,4.1861s1.7982,7.1659,7.4406,7.2711,7.7699-4.4945,8.3248-7.2257L42.99779.9343Z" transform="translate(-0.4245 18.9053)" fill="#5d6162"/><path d="M41.055,11.7016c-.06261,0-.12521-.0009-.18961-.0019-5.7607-.1075-7.65239-7.3808-7.67039-7.4543l-.055-.217L43.01879.6708l6.4506,3.432-.036.1772C48.69979,7.8854,46.11419,11.7016,41.055,11.7016Zm-7.32831-7.36c.3544,1.1762,2.3002,6.7824,7.1482,6.8729.0616.0014.1222.0019.1829.0019,5.8924,0,7.5226-5.3607,7.8619-6.8568l-5.9426-3.1618Z" transform="translate(-0.4245 18.9053)" fill="#505656"/><path d="M49.19509,4.1861s1.7982,7.1659,7.4406,7.2711,7.7699-4.4945,8.3249-7.2257L58.76319.9343Z" transform="translate(-0.4245 18.9053)" fill="#5d6162"/><path d="M56.82039,11.7016c-.0625,0-.1251-.0009-.1895-.0019-5.7607-.1075-7.6524-7.3808-7.6705-7.4543l-.0549-.217L58.78429.6708l6.4506,3.432-.036.1772C64.46529,7.8854,61.87969,11.7016,56.82039,11.7016Zm-7.3282-7.36c.3544,1.1762,2.3002,6.7824,7.1482,6.8729.06161.0014.1222.0019.1829.0019,5.8924,0,7.5226-5.3607,7.8619-6.8568l-5.9426-3.1618Z" transform="translate(-0.4245 18.9053)" fill="#505656"/><path d="M64.96059,4.1861s1.7981,7.1659,7.4405,7.2711S80.171,6.9627,80.726,4.2315L74.52859.9343Z" transform="translate(-0.4245 18.9053)" fill="#5d6162"/><path d="M72.58689,11.7016c-.0635,0-.1261-.0009-.1905-.0019-5.7607-.1075-7.6525-7.3808-7.6705-7.4543l-.05489-.217L74.54979.6708l6.4496,3.4315-.036.1777C80.23169,7.8854,77.64619,11.7016,72.58689,11.7016Zm-7.3293-7.36c.3545,1.1762,2.3003,6.7824,7.1483,6.8729.0616.0014.1222.0019.1838.0019,5.8924,0,7.5207-5.3607,7.86-6.8568L74.508,1.1978Z" transform="translate(-0.4245 18.9053)" fill="#505656"/><path d="M80.726,4.1861s1.79819,7.1659,7.44059,7.2711,7.7698-4.4945,8.3248-7.2257L90.294.9343Z" transform="translate(-0.4245 18.9053)" fill="#5d6162"/><path d="M88.35239,11.7016c-.0635,0-.1261-.0009-.1905-.0019-5.7607-.1075-7.6534-7.3808-7.6714-7.4543l-.055-.217L90.31519.6708l6.4497,3.4315-.036.1777C95.99719,7.8854,93.41169,11.7016,88.35239,11.7016Zm-7.3302-7.36c.3545,1.1762,2.3012,6.7824,7.1491,6.8729.06171.0014.1223.0019.1839.0019,5.8924,0,7.5207-5.3607,7.86-6.8568l-5.9417-3.1618Z" transform="translate(-0.4245 18.9053)" fill="#505656"/><path d="M96.49139,4.1861s1.7982,7.1659,7.44061,7.2711,7.76979-4.4945,8.32479-7.2257L106.05939.9343Z" transform="translate(-0.4245 18.9053)" fill="#5d6162"/><path d="M104.11789,11.7016c-.0635,0-.1261-.0009-.1905-.0019-5.7607-.1075-7.65339-7.3808-7.67139-7.4543l-.055-.217L106.08069.6708l6.4497,3.4315-.036.1777C111.76269,7.8854,109.17719,11.7016,104.11789,11.7016Zm-7.3302-7.36c.3545,1.1762,2.3012,6.7824,7.1491,6.8729.0616.0014.1223.0019.1839.0019,5.8924,0,7.5207-5.3607,7.86-6.8568L106.039,1.1978Z" transform="translate(-0.4245 18.9053)" fill="#505656"/><path d="M112.25679,4.1861s1.79821,7.1659,7.4406,7.2711,7.7699-4.4945,8.3249-7.2257L121.82489.9343Z" transform="translate(-0.4245 18.9053)" fill="#5d6162"/><path d="M119.88339,11.7016c-.0635,0-.1261-.0009-.1905-.0019-5.7607-.1075-7.6534-7.3808-7.6714-7.4543l-.055-.217,9.8788-3.3576,6.4506,3.4315-.036.1777C127.52819,7.8854,124.94259,11.7016,119.88339,11.7016Zm-7.3302-7.36c.3544,1.1762,2.3012,6.7824,7.1491,6.8729.0616.0014.1223.0019.1839.0019,5.8924,0,7.5207-5.3607,7.86-6.8568l-5.9426-3.1618Z" transform="translate(-0.4245 18.9053)" fill="#505656"/><path d="M128.02229,4.1861s1.7981,7.1659,7.4405,7.2711,7.7699-4.4945,8.3249-7.2257L137.59029.9343Z" transform="translate(-0.4245 18.9053)" fill="#5d6162"/><path d="M135.64889,11.7016c-.0635,0-.1261-.0009-.1906-.0019-5.7616-.1075-7.65329-7.3808-7.67129-7.4543l-.055-.217L137.61079.6708l6.4506,3.4315-.036.1777C143.29369,7.8854,140.70809,11.7016,135.64889,11.7016Zm-7.3302-7.36c.3544,1.1762,2.3012,6.7824,7.1491,6.8729.0616.0014.1223.0019.1839.0019,5.8924,0,7.5207-5.3607,7.86-6.8568l-5.9426-3.1618Z" transform="translate(-0.4245 18.9053)" fill="#505656"/><path d="M143.78769,4.1861s1.7982,7.1659,7.4406,7.2711,7.7698-4.4945,8.3248-7.2257L153.35569.9343Z" transform="translate(-0.4245 18.9053)" fill="#5d6162"/><path d="M151.41429,11.7016c-.0635,0-.126-.0009-.1905-.0019-5.7616-.1075-7.6533-7.3808-7.6713-7.4543l-.055-.217,9.8788-3.3576,6.4506,3.4315-.036.1777C159.05919,7.8854,156.47359,11.7016,151.41429,11.7016Zm-7.3301-7.36c.3544,1.1762,2.3012,6.7824,7.1491,6.8729.0616.0014.1223.0019.1839.0019,5.8924,0,7.5207-5.3607,7.86-6.8568l-5.9426-3.1618Z" transform="translate(-0.4245 18.9053)" fill="#505656"/><path d="M41.31239-1.0762s1.7982,7.1659,7.44061,7.2711,7.76989-4.4946,8.32489-7.2257L50.88049-4.328Z" transform="translate(-0.4245 18.9053)" fill="#5d6162"/><path d="M48.93769,6.4395c-.0626,0-.1251-.0009-.1896-.0019-5.7606-.1075-7.6524-7.3813-7.6704-7.4548l-.055-.217,9.8788-3.3571,6.4507,3.431-.0361.1777C56.58249,2.6228,53.997,6.4395,48.93769,6.4395ZM41.60939-.921c.3545,1.1767,2.3003,6.7829,7.1482,6.8734.0616.0014.1223.0019.1829.0019,5.8924,0,7.5226-5.3612,7.8619-6.8573l-5.9426-3.1613Z" transform="translate(-0.4245 18.9053)" fill="#505656"/><path d="M57.07789-1.0762s1.79811,7.1659,7.4405,7.2711,7.7699-4.4946,8.3249-7.2257L66.64589-4.328Z" transform="translate(-0.4245 18.9053)" fill="#5d6162"/><path d="M64.70319,6.4395c-.0626,0-.1251-.0009-.1896-.0019-5.76059-.1075-7.6524-7.3813-7.6704-7.4548l-.055-.217L66.667-4.5913l6.45059,3.431-.036.1777C72.348,2.6228,69.76249,6.4395,64.70319,6.4395ZM57.37489-.921c.3545,1.1767,2.3003,6.7829,7.1482,6.8734.0616.0014.1223.0019.18291.0019,5.89239,0,7.52259-5.3612,7.86189-6.8573l-5.9426-3.1613Z" transform="translate(-0.4245 18.9053)" fill="#505656"/><path d="M72.84329-1.0762s1.7981,7.1659,7.4405,7.2711,7.7699-4.4946,8.3249-7.2257L82.41129-4.328Z" transform="translate(-0.4245 18.9053)" fill="#5d6162"/><path d="M80.46959,6.4395c-.0635,0-.126-.0009-.1905-.0019-5.7606-.1075-7.6524-7.3813-7.6704-7.4548l-.055-.217,9.8788-3.3571,6.4497,3.431-.036.1777C88.11449,2.6228,85.52889,6.4395,80.46959,6.4395ZM73.14039-.921c.3545,1.1767,2.3003,6.7829,7.1482,6.8734.0616.0014.1223.0019.1839.0019,5.8924,0,7.5207-5.3612,7.86-6.8573l-5.9417-3.1613Z" transform="translate(-0.4245 18.9053)" fill="#505656"/><path d="M88.60869-1.0762s1.7982,7.1659,7.4406,7.2711,7.7698-4.4946,8.3248-7.2257L98.17669-4.328Z" transform="translate(-0.4245 18.9053)" fill="#5d6162"/><path d="M96.23509,6.4395c-.0635,0-.126-.0009-.1905-.0019-5.76059-.1075-7.6534-7.3813-7.6714-7.4548l-.0549-.217L98.198-4.5913l6.44969,3.431-.036.1777C103.88,2.6228,101.29439,6.4395,96.23509,6.4395ZM88.90489-.921c.3545,1.1767,2.3013,6.7829,7.1492,6.8734.0616.0014.1223.0019.18391.0019,5.89239,0,7.52069-5.3612,7.86-6.8573L98.15629-4.0643Z" transform="translate(-0.4245 18.9053)" fill="#505656"/><path d="M104.37409-1.0762s1.7982,7.1659,7.4406,7.2711,7.7699-4.4946,8.3248-7.2257l-6.1973-3.2972Z" transform="translate(-0.4245 18.9053)" fill="#5d6162"/><path d="M112.00059,6.4395c-.0635,0-.126-.0009-.1905-.0019-5.7606-.1075-7.6534-7.3813-7.6714-7.4548l-.055-.217,9.8798-3.3571,6.4497,3.431-.036.1777C119.64549,2.6228,117.05989,6.4395,112.00059,6.4395ZM104.67039-.921c.3545,1.1767,2.3013,6.7829,7.1492,6.8734.0616.0014.1223.0019.1839.0019,5.8924,0,7.5206-5.3612,7.86-6.8573l-5.9417-3.1613Z" transform="translate(-0.4245 18.9053)" fill="#505656"/><path d="M120.13949-1.0762s1.7982,7.1659,7.4406,7.2711S135.35,1.7003,135.905-1.0308L129.70759-4.328Z" transform="translate(-0.4245 18.9053)" fill="#5d6162"/><path d="M127.76609,6.4395c-.0635,0-.126-.0009-.1905-.0019-5.76059-.1075-7.6534-7.3813-7.6714-7.4548l-.055-.217L129.728-4.5913l6.45069,3.431-.036.1777C135.411,2.6228,132.82539,6.4395,127.76609,6.4395ZM120.43589-.921c.3545,1.1767,2.3012,6.7829,7.1492,6.8734.0616.0014.1222.0019.18391.0019,5.89229,0,7.52059-5.3612,7.86-6.8573l-5.94271-3.1613Z" transform="translate(-0.4245 18.9053)" fill="#505656"/><path d="M135.905-1.0762s1.79809,7.1659,7.44049,7.2711,7.7699-4.4946,8.3249-7.2257L145.473-4.328Z" transform="translate(-0.4245 18.9053)" fill="#5d6162"/><path d="M143.53159,6.4395c-.0635,0-.1261-.0009-.1905-.0019-5.7616-.1075-7.6534-7.3813-7.6714-7.4548l-.055-.217,9.8788-3.3571,6.4507,3.431-.0361.1777C151.17649,2.6228,148.59089,6.4395,143.53159,6.4395ZM136.20139-.921c.3545,1.1767,2.3012,6.7829,7.1492,6.8734.0616.0014.1222.0019.1838.0019,5.8924,0,7.5207-5.3612,7.86-6.8573l-5.9426-3.1613Z" transform="translate(-0.4245 18.9053)" fill="#505656"/><path d="M151.67039-1.0762s1.7982,7.1659,7.44061,7.2711,7.76979-4.4946,8.32479-7.2257l-6.1974-3.2972Z" transform="translate(-0.4245 18.9053)" fill="#5d6162"/><path d="M159.29709,6.4395c-.0635,0-.12609-.0009-.1905-.0019-5.76159-.1075-7.6534-7.3813-7.6714-7.4548l-.055-.217L161.259-4.5913l6.45069,3.431-.0361.1777C166.94189,2.6228,164.35639,6.4395,159.29709,6.4395ZM151.96689-.921c.3545,1.1767,2.3012,6.7829,7.1492,6.8734.0616.0014.1222.0019.1838.0019,5.8924,0,7.5207-5.3612,7.86-6.8573l-5.9426-3.1613Z" transform="translate(-0.4245 18.9053)" fill="#505656"/><path d="M33.42969-6.3385S35.22789.8273,40.87029.9326s7.7699-4.4946,8.3248-7.2258l-6.1973-3.2971Z" transform="translate(-0.4245 18.9053)" fill="#5d6162"/><path d="M41.055,1.1769c-.06261,0-.12521-.0009-.18961-.0019C35.10469,1.0675,33.213-6.2059,33.195-6.2793l-.055-.217,9.87879-3.3576,6.4506,3.432-.036.1772C48.69979-2.6393,46.11419,1.1769,41.055,1.1769Zm-7.32831-7.36c.3544,1.1762,2.3002,6.7824,7.1482,6.8729.0616.0014.1222.0019.1829.0019,5.8924,0,7.5226-5.3607,7.8619-6.8568l-5.9426-3.1618Z" transform="translate(-0.4245 18.9053)" fill="#505656"/><path d="M49.19509-6.3385S50.99329.8273,56.63569.9326s7.7699-4.4946,8.3249-7.2258l-6.1974-3.2971Z" transform="translate(-0.4245 18.9053)" fill="#5d6162"/><path d="M56.82039,1.1769c-.0625,0-.1251-.0009-.1895-.0019-5.7607-.1075-7.6524-7.3809-7.6705-7.4543l-.0549-.217,9.8788-3.3576,6.4506,3.432-.036.1772C64.46529-2.6393,61.87969,1.1769,56.82039,1.1769Zm-7.3282-7.36c.3544,1.1762,2.3002,6.7824,7.1482,6.8729.06161.0014.1222.0019.1829.0019,5.8924,0,7.5226-5.3607,7.8619-6.8568l-5.9426-3.1618Z" transform="translate(-0.4245 18.9053)" fill="#505656"/><path d="M64.96059-6.3385S66.75869.8273,72.40109.9326,80.171-3.562,80.726-6.2932L74.52859-9.5903Z" transform="translate(-0.4245 18.9053)" fill="#5d6162"/><path d="M72.58689,1.1769c-.0635,0-.1261-.0009-.1905-.0019-5.7607-.1075-7.6525-7.3809-7.6705-7.4543l-.05489-.217,9.87879-3.3576,6.4496,3.4315-.036.1777C80.23169-2.6393,77.64619,1.1769,72.58689,1.1769Zm-7.3293-7.36c.3545,1.1762,2.3003,6.7824,7.1483,6.8729.0616.0014.1222.0019.1838.0019,5.8924,0,7.5207-5.3607,7.86-6.8568L74.508-9.3269Z" transform="translate(-0.4245 18.9053)" fill="#505656"/><path d="M80.726-6.3385S82.52419.8273,88.16659.9326s7.7698-4.4946,8.3248-7.2258L90.294-9.5903Z" transform="translate(-0.4245 18.9053)" fill="#5d6162"/><path d="M88.35239,1.1769c-.0635,0-.1261-.0009-.1905-.0019-5.7607-.1075-7.6534-7.3809-7.6714-7.4543l-.055-.217,9.8797-3.3576,6.4497,3.4315-.036.1777C95.99719-2.6393,93.41169,1.1769,88.35239,1.1769Zm-7.3302-7.36c.3545,1.1762,2.3012,6.7824,7.1491,6.8729.06171.0014.1223.0019.1839.0019,5.8924,0,7.5207-5.3607,7.86-6.8568l-5.9417-3.1618Z" transform="translate(-0.4245 18.9053)" fill="#505656"/><path d="M96.49139-6.3385S98.28959.8273,103.932.9326s7.76979-4.4946,8.32479-7.2258l-6.1974-3.2971Z" transform="translate(-0.4245 18.9053)" fill="#5d6162"/><path d="M104.11789,1.1769c-.0635,0-.1261-.0009-.1905-.0019C98.16669,1.0675,96.274-6.2059,96.256-6.2793l-.055-.217,9.87969-3.3576,6.4497,3.4315-.036.1777C111.76269-2.6393,109.17719,1.1769,104.11789,1.1769Zm-7.3302-7.36c.3545,1.1762,2.3012,6.7824,7.1491,6.8729.0616.0014.1223.0019.1839.0019,5.8924,0,7.5207-5.3607,7.86-6.8568L106.039-9.3269Z" transform="translate(-0.4245 18.9053)" fill="#505656"/><path d="M112.25679-6.3385S114.055.8273,119.69739.9326s7.7699-4.4946,8.3249-7.2258l-6.1974-3.2971Z" transform="translate(-0.4245 18.9053)" fill="#5d6162"/><path d="M119.88339,1.1769c-.0635,0-.1261-.0009-.1905-.0019-5.7607-.1075-7.6534-7.3809-7.6714-7.4543l-.055-.217,9.8788-3.3576,6.4506,3.4315-.036.1777C127.52819-2.6393,124.94259,1.1769,119.88339,1.1769Zm-7.3302-7.36c.3544,1.1762,2.3012,6.7824,7.1491,6.8729.0616.0014.1223.0019.1839.0019,5.8924,0,7.5207-5.3607,7.86-6.8568l-5.9426-3.1618Z" transform="translate(-0.4245 18.9053)" fill="#505656"/><path d="M128.02229-6.3385s1.7981,7.1658,7.4405,7.2711,7.7699-4.4946,8.3249-7.2258l-6.1974-3.2971Z" transform="translate(-0.4245 18.9053)" fill="#5d6162"/><path d="M135.64889,1.1769c-.0635,0-.1261-.0009-.1906-.0019-5.7616-.1075-7.65329-7.3809-7.67129-7.4543l-.055-.217,9.87879-3.3576,6.4506,3.4315-.036.1777C143.29369-2.6393,140.70809,1.1769,135.64889,1.1769Zm-7.3302-7.36c.3544,1.1762,2.3012,6.7824,7.1491,6.8729.0616.0014.1223.0019.1839.0019,5.8924,0,7.5207-5.3607,7.86-6.8568l-5.9426-3.1618Z" transform="translate(-0.4245 18.9053)" fill="#505656"/><path d="M143.78769-6.3385s1.7982,7.1658,7.4406,7.2711,7.7698-4.4946,8.3248-7.2258l-6.1974-3.2971Z" transform="translate(-0.4245 18.9053)" fill="#5d6162"/><path d="M151.41429,1.1769c-.0635,0-.126-.0009-.1905-.0019-5.7616-.1075-7.6533-7.3809-7.6713-7.4543l-.055-.217,9.8788-3.3576,6.4506,3.4315-.036.1777C159.05919-2.6393,156.47359,1.1769,151.41429,1.1769Zm-7.3301-7.36c.3544,1.1762,2.3012,6.7824,7.1491,6.8729.0616.0014.1223.0019.1839.0019,5.8924,0,7.5207-5.3607,7.86-6.8568l-5.9426-3.1618Z" transform="translate(-0.4245 18.9053)" fill="#505656"/><path d="M41.31239-11.6008s1.7982,7.1658,7.44061,7.271,7.76989-4.4945,8.32489-7.2257l-6.1974-3.2972Z" transform="translate(-0.4245 18.9053)" fill="#5d6162"/><path d="M48.93859-4.0852c-.0635,0-.126-.0009-.1905-.0019-5.7606-.1075-7.6524-7.3809-7.6704-7.4543l-.055-.2171,9.8788-3.3575,6.4507,3.431-.0361.1777C56.58249-7.9019,53.997-4.0852,48.93859-4.0852Zm-7.3292-7.36c.3545,1.1762,2.3003,6.7823,7.1482,6.8729.0616.0014.1223.0019.1829.0019,5.8924,0,7.5226-5.3612,7.8619-6.8573l-5.9426-3.1613Z" transform="translate(-0.4245 18.9053)" fill="#505656"/><path d="M57.07789-11.6008s1.79811,7.1658,7.4405,7.271,7.7699-4.4945,8.3249-7.2257l-6.1974-3.2972Z" transform="translate(-0.4245 18.9053)" fill="#5d6162"/><path d="M64.70409-4.0852c-.0635,0-.126-.0009-.1905-.0019-5.76059-.1075-7.6524-7.3809-7.6704-7.4543l-.055-.2171L66.667-15.116l6.45059,3.431-.036.1777C72.348-7.9019,69.76249-4.0852,64.70409-4.0852Zm-7.3292-7.36c.3545,1.1762,2.3003,6.7823,7.1482,6.8729.0616.0014.1223.0019.18291.0019,5.89239,0,7.52259-5.3612,7.86189-6.8573l-5.9426-3.1613Z" transform="translate(-0.4245 18.9053)" fill="#505656"/><path d="M72.84329-11.6008s1.7981,7.1658,7.4405,7.271,7.7699-4.4945,8.3249-7.2257l-6.1974-3.2972Z" transform="translate(-0.4245 18.9053)" fill="#5d6162"/><path d="M80.46959-4.0852c-.0635,0-.126-.0009-.1905-.0019-5.7606-.1075-7.6524-7.3809-7.6704-7.4543l-.055-.2171,9.8788-3.3575,6.4497,3.431-.036.1777C88.11449-7.9019,85.52989-4.0852,80.46959-4.0852Zm-7.3292-7.36c.3545,1.1762,2.3003,6.7823,7.1482,6.8729.0616.0014.1223.0019.1839.0019,5.8933,0,7.5207-5.3612,7.86-6.8573l-5.9417-3.1613Z" transform="translate(-0.4245 18.9053)" fill="#505656"/><path d="M88.60869-11.6008s1.7982,7.1658,7.4406,7.271,7.7698-4.4945,8.3248-7.2257l-6.1974-3.2972Z" transform="translate(-0.4245 18.9053)" fill="#5d6162"/><path d="M96.23509-4.0852c-.0635,0-.126-.0009-.1905-.0019-5.76059-.1075-7.6534-7.3809-7.6714-7.4543l-.0549-.2171L98.198-15.116l6.44969,3.431-.036.1777C103.88-7.9019,101.29539-4.0852,96.23509-4.0852Zm-7.3302-7.36c.3545,1.1762,2.3013,6.7823,7.1492,6.8729.0616.0014.1223.0019.18391.0019,5.89329,0,7.52069-5.3612,7.86-6.8573L98.15629-14.589Z" transform="translate(-0.4245 18.9053)" fill="#505656"/><path d="M104.37409-11.6008s1.7982,7.1658,7.4406,7.271,7.7699-4.4945,8.3248-7.2257l-6.1973-3.2972Z" transform="translate(-0.4245 18.9053)" fill="#5d6162"/><path d="M112.00059-4.0852c-.0635,0-.126-.0009-.1905-.0019-5.7606-.1075-7.6534-7.3809-7.6714-7.4543l-.055-.2171,9.8798-3.3575,6.4497,3.431-.036.1777C119.64549-7.9019,117.06089-4.0852,112.00059-4.0852Zm-7.3302-7.36c.3545,1.1762,2.3013,6.7823,7.1492,6.8729.0616.0014.1223.0019.1839.0019,5.8933,0,7.5206-5.3612,7.86-6.8573l-5.9417-3.1613Z" transform="translate(-0.4245 18.9053)" fill="#505656"/><path d="M120.13949-11.6008s1.7982,7.1658,7.4406,7.271S135.35-8.8243,135.905-11.5555l-6.19741-3.2972Z" transform="translate(-0.4245 18.9053)" fill="#5d6162"/><path d="M127.76609-4.0852c-.0635,0-.126-.0009-.1905-.0019-5.76059-.1075-7.6534-7.3809-7.6714-7.4543l-.055-.2171L129.728-15.116l6.45069,3.431-.036.1777C135.411-7.9019,132.82629-4.0852,127.76609-4.0852Zm-7.3302-7.36c.3545,1.1762,2.3012,6.7823,7.1492,6.8729.0616.0014.1222.0019.18391.0019,5.89329,0,7.52059-5.3612,7.86-6.8573l-5.94271-3.1613Z" transform="translate(-0.4245 18.9053)" fill="#505656"/><path d="M135.905-11.6008s1.79809,7.1658,7.44049,7.271,7.7699-4.4945,8.3249-7.2257L145.473-14.8527Z" transform="translate(-0.4245 18.9053)" fill="#5d6162"/><path d="M143.53159-4.0852c-.0635,0-.1261-.0009-.1905-.0019-5.7616-.1075-7.6534-7.3809-7.6714-7.4543l-.055-.2171,9.8788-3.3575,6.4507,3.431-.0361.1777C151.17649-7.9019,148.59179-4.0852,143.53159-4.0852Zm-7.3302-7.36c.3545,1.1762,2.3012,6.7823,7.1492,6.8729.0616.0014.1222.0019.1838.0019,5.8934,0,7.5207-5.3612,7.86-6.8573l-5.9426-3.1613Z" transform="translate(-0.4245 18.9053)" fill="#505656"/><path d="M151.67039-11.6008s1.7982,7.1658,7.44061,7.271,7.76979-4.4945,8.32479-7.2257l-6.1974-3.2972Z" transform="translate(-0.4245 18.9053)" fill="#5d6162"/><path d="M159.29709-4.0852c-.0635,0-.12609-.0009-.1905-.0019-5.76159-.1075-7.6534-7.3809-7.6714-7.4543l-.055-.2171L161.259-15.116l6.45069,3.431-.0361.1777C166.94189-7.9019,164.35729-4.0852,159.29709-4.0852Zm-7.3302-7.36c.3545,1.1762,2.3012,6.7823,7.1492,6.8729.0616.0014.1222.0019.1838.0019,5.8934,0,7.5207-5.3612,7.86-6.8573l-5.9426-3.1613Z" transform="translate(-0.4245 18.9053)" fill="#505656"/><path d="M33.42969-15.39s1.7982,7.1659,7.4406,7.2711,7.7699-4.4946,8.3248-7.2257l-6.1973-3.2972Z" transform="translate(-0.4245 18.9053)" fill="#5d6162"/><path d="M41.055-7.8744c-.06261,0-.12521-.001-.18961-.0019-5.7607-.1076-7.65239-7.3809-7.67039-7.4544l-.055-.217,9.87879-3.3576,6.4506,3.432-.036.1772C48.69979-11.6907,46.11419-7.8744,41.055-7.8744Zm-7.32831-7.3601c.3544,1.1762,2.3002,6.7824,7.1482,6.8729.0616.0014.1222.0019.1829.0019,5.8924,0,7.5226-5.3607,7.8619-6.8568l-5.9426-3.1618Z" transform="translate(-0.4245 18.9053)" fill="#505656"/><path d="M49.19509-15.39s1.7982,7.1659,7.4406,7.2711,7.7699-4.4946,8.3249-7.2257l-6.1974-3.2972Z" transform="translate(-0.4245 18.9053)" fill="#5d6162"/><path d="M56.82039-7.8744c-.0625,0-.1251-.001-.1895-.0019-5.7607-.1076-7.6524-7.3809-7.6705-7.4544l-.0549-.217,9.8788-3.3576,6.4506,3.432-.036.1772C64.46529-11.6907,61.87969-7.8744,56.82039-7.8744Zm-7.3282-7.3601c.3544,1.1762,2.3002,6.7824,7.1482,6.8729.06161.0014.1222.0019.1829.0019,5.8924,0,7.5226-5.3607,7.8619-6.8568l-5.9426-3.1618Z" transform="translate(-0.4245 18.9053)" fill="#505656"/><path d="M64.96059-15.39s1.7981,7.1659,7.4405,7.2711S80.171-12.6135,80.726-15.3446l-6.19741-3.2972Z" transform="translate(-0.4245 18.9053)" fill="#5d6162"/><path d="M72.58689-7.8744c-.0635,0-.1261-.001-.1905-.0019-5.7607-.1076-7.6525-7.3809-7.6705-7.4544l-.05489-.217,9.87879-3.3576,6.4496,3.4315-.036.1777C80.23169-11.6907,77.64619-7.8744,72.58689-7.8744Zm-7.3293-7.3601c.3545,1.1762,2.3003,6.7824,7.1483,6.8729.0616.0014.1222.0019.1838.0019,5.8924,0,7.5207-5.3607,7.86-6.8568L74.508-18.3783Z" transform="translate(-0.4245 18.9053)" fill="#505656"/><path d="M80.726-15.39s1.79819,7.1659,7.44059,7.2711,7.7698-4.4946,8.3248-7.2257L90.294-18.6418Z" transform="translate(-0.4245 18.9053)" fill="#5d6162"/><path d="M88.35239-7.8744c-.0635,0-.1261-.001-.1905-.0019-5.7607-.1076-7.6534-7.3809-7.6714-7.4544l-.055-.217,9.8797-3.3576,6.4497,3.4315-.036.1777C95.99719-11.6907,93.41169-7.8744,88.35239-7.8744Zm-7.3302-7.3601c.3545,1.1762,2.3012,6.7824,7.1491,6.8729.06171.0014.1223.0019.1839.0019,5.8924,0,7.5207-5.3607,7.86-6.8568l-5.9417-3.1618Z" transform="translate(-0.4245 18.9053)" fill="#505656"/><path d="M96.49139-15.39s1.7982,7.1659,7.44061,7.2711,7.76979-4.4946,8.32479-7.2257l-6.1974-3.2972Z" transform="translate(-0.4245 18.9053)" fill="#5d6162"/><path d="M104.11789-7.8744c-.0635,0-.1261-.001-.1905-.0019-5.7607-.1076-7.65339-7.3809-7.67139-7.4544l-.055-.217,9.87969-3.3576,6.4497,3.4315-.036.1777C111.76269-11.6907,109.17719-7.8744,104.11789-7.8744Zm-7.3302-7.3601c.3545,1.1762,2.3012,6.7824,7.1491,6.8729.0616.0014.1223.0019.1839.0019,5.8924,0,7.5207-5.3607,7.86-6.8568L106.039-18.3783Z" transform="translate(-0.4245 18.9053)" fill="#505656"/><path d="M112.25679-15.39s1.79821,7.1659,7.4406,7.2711,7.7699-4.4946,8.3249-7.2257l-6.1974-3.2972Z" transform="translate(-0.4245 18.9053)" fill="#5d6162"/><path d="M119.88339-7.8744c-.0635,0-.1261-.001-.1905-.0019-5.7607-.1076-7.6534-7.3809-7.6714-7.4544l-.055-.217,9.8788-3.3576,6.4506,3.4315-.036.1777C127.52819-11.6907,124.94259-7.8744,119.88339-7.8744Zm-7.3302-7.3601c.3544,1.1762,2.3012,6.7824,7.1491,6.8729.0616.0014.1223.0019.1839.0019,5.8924,0,7.5207-5.3607,7.86-6.8568l-5.9426-3.1618Z" transform="translate(-0.4245 18.9053)" fill="#505656"/><path d="M128.02229-15.39s1.7981,7.1659,7.4405,7.2711,7.7699-4.4946,8.3249-7.2257l-6.1974-3.2972Z" transform="translate(-0.4245 18.9053)" fill="#5d6162"/><path d="M135.64889-7.8744c-.0635,0-.1261-.001-.1906-.0019-5.7616-.1076-7.65329-7.3809-7.67129-7.4544l-.055-.217,9.87879-3.3576,6.4506,3.4315-.036.1777C143.29369-11.6907,140.70809-7.8744,135.64889-7.8744Zm-7.3302-7.3601c.3544,1.1762,2.3012,6.7824,7.1491,6.8729.0616.0014.1223.0019.1839.0019,5.8924,0,7.5207-5.3607,7.86-6.8568l-5.9426-3.1618Z" transform="translate(-0.4245 18.9053)" fill="#505656"/><path d="M143.78769-15.39s1.7982,7.1659,7.4406,7.2711,7.7698-4.4946,8.3248-7.2257l-6.1974-3.2972Z" transform="translate(-0.4245 18.9053)" fill="#5d6162"/><path d="M151.41429-7.8744c-.0635,0-.126-.001-.1905-.0019-5.7616-.1076-7.6533-7.3809-7.6713-7.4544l-.055-.217,9.8788-3.3576,6.4506,3.4315-.036.1777C159.05919-11.6907,156.47359-7.8744,151.41429-7.8744Zm-7.3301-7.3601c.3544,1.1762,2.3012,6.7824,7.1491,6.8729.0616.0014.1223.0019.1839.0019,5.8924,0,7.5207-5.3607,7.86-6.8568l-5.9426-3.1618Z" transform="translate(-0.4245 18.9053)" fill="#505656"/></g><polygon points="62.925 118.953 22.101 118.953 22.101 59.275 42.513 39.071 62.925 62.066 62.925 118.953" fill="#f89655"/><g opacity="0.3" style="mix-blend-mode:multiply"><polyline points="21.987 61.246 42.879 39.071 62.925 62.066 62.925 66.053 43.001 42.98 22.101 64.073 22.101 60.888" fill="#4a4b4d"/></g><path d="M67.035,44.2353,44.404,18.5025a1.3949,1.3949,0,0,0-2.04331-.0556L17.0292,44.2714a1.34243,1.34243,0,0,0,.0091,1.8892h0a1.39487,1.39487,0,0,0,1.9735-.0008L42.49,22.6409a1.39479,1.39479,0,0,1,2.03769.0678L64.899,46.0305a1.43333,1.43333,0,0,0,1.90469.2576A1.39528,1.39528,0,0,0,67.035,44.2353Z" transform="translate(-0.4245 18.9053)" fill="#4a4b4d"/><rect x="70.1733" y="76.354" width="20.13221" height="35.9535" fill="#85674d"/><rect x="71.2366" y="77.506" width="17.7397" height="33.8268" fill="#a58a6c"/><rect x="112.4626" y="73.545" width="27.32691" height="22.6755" fill="#5ca09f"/><path d="M120.426,66.6351a.12535.12535,0,0,1-.08741-.2152l3.0083-2.9248a.12535.12535,0,1,1,.1748.1797l-3.0083,2.9248A.12517.12517,0,0,1,120.426,66.6351Z" transform="translate(-0.4245 18.9053)" fill="#87ccc9"/><path d="M124.12139,67.1341a.12535.12535,0,0,1-.08739-.2152l3.00839-2.9247a.12535.12535,0,0,1,.1748.1797l-3.0084,2.9247A.12441.12441,0,0,1,124.12139,67.1341Z" transform="translate(-0.4245 18.9053)" fill="#87ccc9"/><path d="M119.045,69.6153a.1254.1254,0,0,1-.08361-.2188l9.5264-8.5236a.12535.12535,0,0,1,.16721.1868l-9.52641,8.5236A.12536.12536,0,0,1,119.045,69.6153Z" transform="translate(-0.4245 18.9053)" fill="#87ccc9"/><path d="M134.34,75.6378a.1254.1254,0,0,1-.08741-.2152l3.00841-2.9248a.12534.12534,0,0,1,.17479.1797l-3.0084,2.9248A.12484.12484,0,0,1,134.34,75.6378Z" transform="translate(-0.4245 18.9053)" fill="#87ccc9"/><path d="M129.67359,74.7517a.1253.1253,0,0,1-.08359-.2187l9.52649-8.5237a.12535.12535,0,0,1,.1672.1868l-9.5265,8.5237A.12507.12507,0,0,1,129.67359,74.7517Z" transform="translate(-0.4245 18.9053)" fill="#87ccc9"/><rect x="120.5986" y="73.545" width="0.9206" height="22.6755" fill="#5a6a8c"/><rect x="130.7329" y="73.545" width="0.92061" height="22.6755" fill="#5a6a8c"/><rect x="110.8408" y="96.2205" width="30.5705" height="2.2196" rx="0.7823" fill="#095b73"/><rect x="112.4626" y="84.4951" width="27.32691" height="0.7753" fill="#5a6a8c"/><rect x="100.0083" y="66.0531" width="3.3228" height="48.7235" fill="#e3e8e4"/><rect x="148.92099" y="66.0531" width="3.3229" height="48.7235" fill="#e3e8e4"/><rect x="101.6697" y="100.8768" width="48.9127" height="2.546" fill="#e3e8e4"/><rect x="107.4294" y="102.1498" width="1.9494" height="13.3477" fill="#e3e8e4"/><rect x="116.2904" y="102.1498" width="1.9494" height="13.3477" fill="#e3e8e4"/><rect x="125.1514" y="102.1498" width="1.9494" height="13.3477" fill="#e3e8e4"/><rect x="134.0123" y="102.1498" width="1.9495" height="13.3477" fill="#e3e8e4"/><rect x="142.8733" y="102.1498" width="1.9495" height="13.3477" fill="#e3e8e4"/><rect x="97.6311" y="114.7766" width="59.0113" height="4.1767" fill="#ba692a"/><path d="M35.707,45.6268c0-5.2283,3.23719-9.4666,7.23059-9.4666s7.2305,4.2383,7.2305,9.4666" transform="translate(-0.4245 18.9053)" fill="#cc7e36"/><path d="M50.65319,45.6267h-.9705c0-4.9522-3.0263-8.9812-6.7454-8.9812s-6.7454,4.029-6.7454,8.9812h-.9706c0-5.4872,3.4613-9.9517,7.716-9.9517S50.65319,40.1395,50.65319,45.6267Z" transform="translate(-0.4245 18.9053)" fill="#ba692a"/><path d="M105.04049,49.1414h-5.8926a.99676.99676,0,0,1-.9968-.9968h0a.99682.99682,0,0,1,.9968-.9968h5.8926a.99684.99684,0,0,1,.9969.9968h0A.99678.99678,0,0,1,105.04049,49.1414Z" transform="translate(-0.4245 18.9053)" fill="#e3e8e4"/><path d="M153.95319,49.1414h-5.8926a.99676.99676,0,0,1-.9968-.9968h0a.99682.99682,0,0,1,.9968-.9968h5.8926a.99684.99684,0,0,1,.9969.9968h0A.99678.99678,0,0,1,153.95319,49.1414Z" transform="translate(-0.4245 18.9053)" fill="#e3e8e4"/><path d="M105.04049,95.8713h-5.8926a.99682.99682,0,0,1-.9968-.9968h0a.99684.99684,0,0,1,.9968-.9969h5.8926a.99687.99687,0,0,1,.9969.9969h0A.99684.99684,0,0,1,105.04049,95.8713Z" transform="translate(-0.4245 18.9053)" fill="#e3e8e4"/><path d="M153.95319,95.8713h-5.8926a.99682.99682,0,0,1-.9968-.9968h0a.99684.99684,0,0,1,.9968-.9969h5.8926a.99687.99687,0,0,1,.9969.9969h0A.99684.99684,0,0,1,153.95319,95.8713Z" transform="translate(-0.4245 18.9053)" fill="#e3e8e4"/><rect x="62.925" y="112.3075" width="34.8016" height="1.8608" fill="#5d6162"/><rect x="62.925" y="114.1683" width="34.8016" height="1.8608" fill="#707676"/><rect x="62.925" y="116.0291" width="34.8016" height="1.8609" fill="#5e6263"/><rect x="62.925" y="117.89" width="34.8016" height="1.0633" fill="#707676"/><path d="M75.28609,72.1081a.0836.0836,0,0,1-.0582-.1433l2.0019-1.9463a.08341.08341,0,1,1,.1163.1196l-2.0019,1.9463A.08345.08345,0,0,1,75.28609,72.1081Z" transform="translate(-0.4245 18.9053)" fill="#c4aa90"/><path d="M78.677,72.8011a.08345.08345,0,0,1-.05821-.1432l2.0019-1.9463a.08345.08345,0,0,1,.1164.1196l-2.0019,1.9463A.08334.08334,0,0,1,78.677,72.8011Z" transform="translate(-0.4245 18.9053)" fill="#c4aa90"/><path d="M77.59269,88.7054a.08345.08345,0,0,1-.0582-.1432l2.0019-1.9463a.08341.08341,0,0,1,.1163.1196l-2.0019,1.9463A.08294.08294,0,0,1,77.59269,88.7054Z" transform="translate(-0.4245 18.9053)" fill="#c4aa90"/><path d="M74.42449,75.0075a.08345.08345,0,0,1-.0587-.1428l6.8846-6.8288a.08344.08344,0,1,1,.1175.1185l-6.8847,6.8289A.08255.08255,0,0,1,74.42449,75.0075Z" transform="translate(-0.4245 18.9053)" fill="#c4aa90"/><g opacity="0.2" style="mix-blend-mode:multiply"><polyline points="62.925 74.1 22.101 74.1 22.12 68.735 62.925 68.602" fill="#4a4b4d"/></g><rect x="31.8799" y="82.3648" width="21.2664" height="26.4589" fill="#5ca09f"/><rect x="20.9713" y="68.0467" width="43.0835" height="5.4983" rx="1.1061" fill="#ba692a"/><rect x="22.1011" y="77.5154" width="4.1561" height="2.177" fill="#cd7f37"/><rect x="24.1791" y="80.687" width="4.1561" height="2.177" fill="#cd7f37"/><rect x="55.4141" y="114.9407" width="4.1561" height="2.1769" fill="#cd7f37"/><rect x="58.5561" y="112.1494" width="4.156" height="2.177" fill="#cd7f37"/><rect x="80.968" y="70.1061" width="4.1561" height="2.177" fill="#f89655"/><rect x="86.8983" y="72.4565" width="4.156" height="2.177" fill="#f89655"/><rect x="154.56439" y="75.2655" width="2.078" height="2.177" fill="#f89655"/><rect x="154.56439" y="106.5222" width="2.078" height="2.177" fill="#f89655"/><rect x="31.5012" y="113.2379" width="4.1561" height="2.177" fill="#cd7f37"/><path d="M38.72029,77.0447a.1253.1253,0,0,1-.0874-.2152l3.0083-2.9247a.12535.12535,0,1,1,.17481.1797l-3.00831,2.9247A.12458.12458,0,0,1,38.72029,77.0447Z" transform="translate(-0.4245 18.9053)" fill="#87ccc9"/><path d="M42.41569,77.5438a.1254.1254,0,0,1-.0874-.2152l3.0084-2.9248a.12535.12535,0,0,1,.1748.1797l-3.0084,2.9248A.12484.12484,0,0,1,42.41569,77.5438Z" transform="translate(-0.4245 18.9053)" fill="#87ccc9"/><path d="M37.33929,80.0249a.1253.1253,0,0,1-.0836-.2187l9.5264-8.5237a.12535.12535,0,1,1,.1672.1868l-9.5264,8.5237A.12524.12524,0,0,1,37.33929,80.0249Z" transform="translate(-0.4245 18.9053)" fill="#87ccc9"/><rect x="42.0528" y="82.3648" width="0.9205" height="27.7134" fill="#5a6a8c"/><rect x="31.9242" y="90.6908" width="21.1777" height="0.9206" fill="#5a6a8c"/><rect x="31.9242" y="99.577" width="21.1777" height="0.9206" fill="#5a6a8c"/><path d="M53.313,92.4275H32.56209a1.2546,1.2546,0,0,1-1.2546-1.2546h0a1.25451,1.25451,0,0,1,1.2546-1.2545H53.313a1.25451,1.25451,0,0,1,1.25459,1.2545h0A1.25459,1.25459,0,0,1,53.313,92.4275Z" transform="translate(-0.4245 18.9053)" fill="#095b73"/><path d="M34.31659,64.1037H50.7095a.7373.7373,0,0,1,.7373.7373v.6962a.7374.7374,0,0,1-.7374.7374H34.31659a.73729.73729,0,0,1-.73729-.73729V64.841A.73729.73729,0,0,1,34.31659,64.1037Z" fill="#ba692a"/></g></g></svg>