<?xml version="1.0" encoding="UTF-8" standalone="no"?><svg xmlns="http://www.w3.org/2000/svg" xmlns:xlink="http://www.w3.org/1999/xlink" contentScriptType="application/ecmascript" contentStyleType="text/css" height="641px" preserveAspectRatio="none" style="width:1068px;height:641px;" version="1.1" viewBox="0 0 1068 641" width="1068px" zoomAndPan="magnify"><defs><linearGradient id="gk7rtqx0422vx0" x1="0%" x2="100%" y1="0%" y2="100%"><stop offset="0%" stop-color="#FAFAFA"/><stop offset="100%" stop-color="#FAFAFA"/></linearGradient></defs><g><text fill="#000000" font-family="sans-serif" font-size="18" lengthAdjust="spacingAndGlyphs" textLength="230" x="425" y="18.6855">Class Diagram GroundWater</text><text fill="#000000" font-family="sans-serif" font-size="18" lengthAdjust="spacingAndGlyphs" textLength="0" x="542.5" y="41.3262"/><!--MD5=[ca233319648a6250d10280d12c5793f6]
cluster GroundWater--><polygon fill="url(#gk7rtqx0422vx0)" points="22,69.2813,122,69.2813,129,92.8906,1046,92.8906,1046,629.2813,22,629.2813,22,69.2813" style="stroke: #000000; stroke-width: 1.5;"/><line style="stroke: #000000; stroke-width: 1.5;" x1="22" x2="129" y1="92.8906" y2="92.8906"/><text fill="#000000" font-family="sans-serif" font-size="14" font-weight="bold" lengthAdjust="spacingAndGlyphs" textLength="94" x="26" y="85.8145">GroundWater</text><!--MD5=[4b73bd175ef96f9654a8459807833a1c]
class GroundWater.Sensor--><rect fill="#FFFFFF" height="170.5234" id="GroundWater.Sensor" rx="7.5" ry="7.5" style="stroke: #CCCCCC; stroke-width: 1.0;" width="161" x="422.5" y="105.2813"/><ellipse cx="478.5" cy="120.2813" fill="#ADD1B2" rx="10" ry="10" style="stroke: #CCCCCC; stroke-width: 1.0;"/><path d="M478.5,117.2813 Q478.7031,116.7813 478.9375,116.5313 Q479.1719,116.2813 479.4375,116.2813 Q479.9063,116.2813 480.2031,116.5 Q480.5,116.7031 480.5,117.1875 L480.5,118.3594 Q480.5,118.8594 480.3594,119.0781 Q480.2188,119.2813 480,119.2813 Q479.7969,119.2813 479.6875,119.1094 Q479.5625,118.9375 479.5,118.4844 Q479.4688,118.1719 479.375,118 Q479.1875,117.6719 478.8438,117.4844 Q478.5156,117.2813 478.1719,117.2813 L478.2969,117.2813 L476.5,119.0781 L476.5,119.0781 L476.5,119.9531 L476.5,120.875 L476.5,121.4844 L478.2969,123.2813 L478.3281,123.2813 Q478.8281,123.2813 479.1875,123.0781 Q479.3906,122.9688 479.625,122.6094 Q479.7656,122.4063 479.8438,122.3438 Q479.9375,122.2813 480.0313,122.2813 Q480.2188,122.2813 480.3594,122.4531 Q480.5,122.625 480.5,122.8594 Q480.5,123.0938 480.2656,123.3594 Q479.9375,123.75 479.4063,123.9844 Q478.7031,124.2813 477.8438,124.2813 L477.7031,124.2813 L474.5,122.0781 L474.5,122.0781 L474.5,122.0781 L474.5,120.8438 L474.5,119.9688 L474.5,118.4844 L474.5,118.4844 L477.7031,116.2813 L477.0781,116.2813 Q477.4844,116.2813 477.8281,116.5313 Q478.1875,116.7813 478.5,117.2813 Z "/><text fill="#000000" font-family="sans-serif" font-size="13" lengthAdjust="spacingAndGlyphs" textLength="41" x="497.5" y="125.6006">Sensor</text><line style="stroke: #CCCCCC; stroke-width: 1.0;" x1="423.5" x2="582.5" y1="135.2813" y2="135.2813"/><ellipse cx="433.5" cy="146.2813" fill="none" rx="3" ry="3" style="stroke: #038048; stroke-width: 1.0;"/><text fill="#3C3F41" font-family="sans-serif" font-size="11" lengthAdjust="spacingAndGlyphs" textLength="63" x="441.5" y="150.7002">internalId : int</text><ellipse cx="433.5" cy="160.1172" fill="none" rx="3" ry="3" style="stroke: #038048; stroke-width: 1.0;"/><text fill="#3C3F41" font-family="sans-serif" font-size="11" lengthAdjust="spacingAndGlyphs" textLength="57" x="441.5" y="164.5361">uuid : String</text><ellipse cx="433.5" cy="173.9531" fill="none" rx="3" ry="3" style="stroke: #038048; stroke-width: 1.0;"/><text fill="#3C3F41" font-family="sans-serif" font-size="11" lengthAdjust="spacingAndGlyphs" textLength="102" x="441.5" y="178.3721">externalSensorId : int</text><ellipse cx="433.5" cy="187.7891" fill="none" rx="3" ry="3" style="stroke: #038048; stroke-width: 1.0;"/><text fill="#3C3F41" font-family="sans-serif" font-size="11" lengthAdjust="spacingAndGlyphs" textLength="136" x="441.5" y="192.208">externalMonitoringWellId : int</text><ellipse cx="433.5" cy="201.625" fill="none" rx="3" ry="3" style="stroke: #038048; stroke-width: 1.0;"/><text fill="#3C3F41" font-family="sans-serif" font-size="11" lengthAdjust="spacingAndGlyphs" textLength="63" x="441.5" y="206.0439">name : String</text><ellipse cx="433.5" cy="215.4609" fill="none" rx="3" ry="3" style="stroke: #038048; stroke-width: 1.0;"/><text fill="#3C3F41" font-family="sans-serif" font-size="11" lengthAdjust="spacingAndGlyphs" textLength="79" x="441.5" y="219.8799">latitude  : Double</text><ellipse cx="433.5" cy="229.2969" fill="none" rx="3" ry="3" style="stroke: #038048; stroke-width: 1.0;"/><text fill="#3C3F41" font-family="sans-serif" font-size="11" lengthAdjust="spacingAndGlyphs" textLength="88" x="441.5" y="233.7158">longitude  : Double</text><ellipse cx="433.5" cy="243.1328" fill="none" rx="3" ry="3" style="stroke: #038048; stroke-width: 1.0;"/><text fill="#3C3F41" font-family="sans-serif" font-size="11" lengthAdjust="spacingAndGlyphs" textLength="80" x="441.5" y="247.5518">address  : String</text><ellipse cx="433.5" cy="256.9688" fill="none" rx="3" ry="3" style="stroke: #038048; stroke-width: 1.0;"/><text fill="#3C3F41" font-family="sans-serif" font-size="11" lengthAdjust="spacingAndGlyphs" textLength="76" x="441.5" y="261.3877">cellarHeight : int</text><line style="stroke: #CCCCCC; stroke-width: 1.0;" x1="423.5" x2="582.5" y1="267.8047" y2="267.8047"/><!--MD5=[7f98f8517c98e0e2e3906fd8ace3e32a]
class GroundWater.User--><rect fill="#FFFFFF" height="156.6875" id="GroundWater.User" rx="7.5" ry="7.5" style="stroke: #CCCCCC; stroke-width: 1.0;" width="138" x="619" y="112.2813"/><ellipse cx="670.5" cy="127.2813" fill="#ADD1B2" rx="10" ry="10" style="stroke: #CCCCCC; stroke-width: 1.0;"/><path d="M670.5,124.2813 Q670.7031,123.7813 670.9375,123.5313 Q671.1719,123.2813 671.4375,123.2813 Q671.9063,123.2813 672.2031,123.5 Q672.5,123.7031 672.5,124.1875 L672.5,125.3594 Q672.5,125.8594 672.3594,126.0781 Q672.2188,126.2813 672,126.2813 Q671.7969,126.2813 671.6875,126.1094 Q671.5625,125.9375 671.5,125.4844 Q671.4688,125.1719 671.375,125 Q671.1875,124.6719 670.8438,124.4844 Q670.5156,124.2813 670.1719,124.2813 L670.2969,124.2813 L668.5,126.0781 L668.5,126.0781 L668.5,126.9531 L668.5,127.875 L668.5,128.4844 L670.2969,130.2813 L670.3281,130.2813 Q670.8281,130.2813 671.1875,130.0781 Q671.3906,129.9688 671.625,129.6094 Q671.7656,129.4063 671.8438,129.3438 Q671.9375,129.2813 672.0313,129.2813 Q672.2188,129.2813 672.3594,129.4531 Q672.5,129.625 672.5,129.8594 Q672.5,130.0938 672.2656,130.3594 Q671.9375,130.75 671.4063,130.9844 Q670.7031,131.2813 669.8438,131.2813 L669.7031,131.2813 L666.5,129.0781 L666.5,129.0781 L666.5,129.0781 L666.5,127.8438 L666.5,126.9688 L666.5,125.4844 L666.5,125.4844 L669.7031,123.2813 L669.0781,123.2813 Q669.4844,123.2813 669.8281,123.5313 Q670.1875,123.7813 670.5,124.2813 Z "/><text fill="#000000" font-family="sans-serif" font-size="13" lengthAdjust="spacingAndGlyphs" textLength="27" x="689.5" y="132.6006">User</text><line style="stroke: #CCCCCC; stroke-width: 1.0;" x1="620" x2="756" y1="142.2813" y2="142.2813"/><ellipse cx="630" cy="153.2813" fill="none" rx="3" ry="3" style="stroke: #038048; stroke-width: 1.0;"/><text fill="#3C3F41" font-family="sans-serif" font-size="11" lengthAdjust="spacingAndGlyphs" textLength="28" x="638" y="157.7002">id : int</text><ellipse cx="630" cy="167.1172" fill="none" rx="3" ry="3" style="stroke: #038048; stroke-width: 1.0;"/><text fill="#3C3F41" font-family="sans-serif" font-size="11" lengthAdjust="spacingAndGlyphs" textLength="67" x="638" y="171.5361">oauthProvider</text><ellipse cx="630" cy="180.9531" fill="none" rx="3" ry="3" style="stroke: #038048; stroke-width: 1.0;"/><text fill="#3C3F41" font-family="sans-serif" font-size="11" lengthAdjust="spacingAndGlyphs" textLength="72" x="638" y="185.3721">oauthId : String</text><ellipse cx="630" cy="194.7891" fill="none" rx="3" ry="3" style="stroke: #038048; stroke-width: 1.0;"/><text fill="#3C3F41" font-family="sans-serif" font-size="11" lengthAdjust="spacingAndGlyphs" textLength="85" x="638" y="199.208">username : String</text><ellipse cx="630" cy="208.625" fill="none" rx="3" ry="3" style="stroke: #038048; stroke-width: 1.0;"/><text fill="#3C3F41" font-family="sans-serif" font-size="11" lengthAdjust="spacingAndGlyphs" textLength="63" x="638" y="213.0439">name : String</text><ellipse cx="630" cy="222.4609" fill="none" rx="3" ry="3" style="stroke: #038048; stroke-width: 1.0;"/><text fill="#3C3F41" font-family="sans-serif" font-size="11" lengthAdjust="spacingAndGlyphs" textLength="113" x="638" y="226.8799">sensors : List&lt;Sensor&gt;</text><ellipse cx="630" cy="236.2969" fill="none" rx="3" ry="3" style="stroke: #038048; stroke-width: 1.0;"/><text fill="#3C3F41" font-family="sans-serif" font-size="11" lengthAdjust="spacingAndGlyphs" textLength="106" x="638" y="240.7158">firebaseToken : String</text><ellipse cx="630" cy="250.1328" fill="none" rx="3" ry="3" style="stroke: #038048; stroke-width: 1.0;"/><text fill="#3C3F41" font-family="sans-serif" font-size="11" lengthAdjust="spacingAndGlyphs" textLength="74" x="638" y="254.5518">setting : Setting</text><line style="stroke: #CCCCCC; stroke-width: 1.0;" x1="620" x2="756" y1="260.9688" y2="260.9688"/><!--MD5=[7d7772b78861a482374d99b77b3da595]
class GroundWater.Note--><rect fill="#FFFFFF" height="115.1797" id="GroundWater.Note" rx="7.5" ry="7.5" style="stroke: #CCCCCC; stroke-width: 1.0;" width="164" x="415" y="491.2813"/><ellipse cx="479.5" cy="506.2813" fill="#ADD1B2" rx="10" ry="10" style="stroke: #CCCCCC; stroke-width: 1.0;"/><path d="M479.5,503.2813 Q479.7031,502.7813 479.9375,502.5313 Q480.1719,502.2813 480.4375,502.2813 Q480.9063,502.2813 481.2031,502.5 Q481.5,502.7031 481.5,503.1875 L481.5,504.3594 Q481.5,504.8594 481.3594,505.0781 Q481.2188,505.2813 481,505.2813 Q480.7969,505.2813 480.6875,505.1094 Q480.5625,504.9375 480.5,504.4844 Q480.4688,504.1719 480.375,504 Q480.1875,503.6719 479.8438,503.4844 Q479.5156,503.2813 479.1719,503.2813 L479.2969,503.2813 L477.5,505.0781 L477.5,505.0781 L477.5,505.9531 L477.5,506.875 L477.5,507.4844 L479.2969,509.2813 L479.3281,509.2813 Q479.8281,509.2813 480.1875,509.0781 Q480.3906,508.9688 480.625,508.6094 Q480.7656,508.4063 480.8438,508.3438 Q480.9375,508.2813 481.0313,508.2813 Q481.2188,508.2813 481.3594,508.4531 Q481.5,508.625 481.5,508.8594 Q481.5,509.0938 481.2656,509.3594 Q480.9375,509.75 480.4063,509.9844 Q479.7031,510.2813 478.8438,510.2813 L478.7031,510.2813 L475.5,508.0781 L475.5,508.0781 L475.5,508.0781 L475.5,506.8438 L475.5,505.9688 L475.5,504.4844 L475.5,504.4844 L478.7031,502.2813 L478.0781,502.2813 Q478.4844,502.2813 478.8281,502.5313 Q479.1875,502.7813 479.5,503.2813 Z "/><text fill="#000000" font-family="sans-serif" font-size="13" lengthAdjust="spacingAndGlyphs" textLength="27" x="498.5" y="511.6006">Note</text><line style="stroke: #CCCCCC; stroke-width: 1.0;" x1="416" x2="578" y1="521.2813" y2="521.2813"/><ellipse cx="426" cy="532.2813" fill="none" rx="3" ry="3" style="stroke: #038048; stroke-width: 1.0;"/><text fill="#3C3F41" font-family="sans-serif" font-size="11" lengthAdjust="spacingAndGlyphs" textLength="28" x="434" y="536.7002">id : int</text><ellipse cx="426" cy="546.1172" fill="none" rx="3" ry="3" style="stroke: #038048; stroke-width: 1.0;"/><text fill="#3C3F41" font-family="sans-serif" font-size="11" lengthAdjust="spacingAndGlyphs" textLength="72" x="434" y="550.5361">dataPointId : int</text><ellipse cx="426" cy="559.9531" fill="none" rx="3" ry="3" style="stroke: #038048; stroke-width: 1.0;"/><text fill="#3C3F41" font-family="sans-serif" font-size="11" lengthAdjust="spacingAndGlyphs" textLength="81" x="434" y="564.3721">creationDate : int</text><ellipse cx="426" cy="573.7891" fill="none" rx="3" ry="3" style="stroke: #038048; stroke-width: 1.0;"/><text fill="#3C3F41" font-family="sans-serif" font-size="11" lengthAdjust="spacingAndGlyphs" textLength="139" x="434" y="578.208">externalMonitoringWellId  : int</text><ellipse cx="426" cy="587.625" fill="none" rx="3" ry="3" style="stroke: #038048; stroke-width: 1.0;"/><text fill="#3C3F41" font-family="sans-serif" font-size="11" lengthAdjust="spacingAndGlyphs" textLength="90" x="434" y="592.0439">description : String</text><line style="stroke: #CCCCCC; stroke-width: 1.0;" x1="416" x2="578" y1="598.4609" y2="598.4609"/><!--MD5=[3eabc6b7cbbd6c13cd923fd6159bd9ed]
class GroundWater.MonitoringWellMeasurement--><rect fill="#FFFFFF" height="129.0156" id="GroundWater.MonitoringWellMeasurement" rx="7.5" ry="7.5" style="stroke: #CCCCCC; stroke-width: 1.0;" width="195" x="652.5" y="484.2813"/><ellipse cx="666.5" cy="499.2813" fill="#ADD1B2" rx="10" ry="10" style="stroke: #CCCCCC; stroke-width: 1.0;"/><path d="M666.5,496.2813 Q666.7031,495.7813 666.9375,495.5313 Q667.1719,495.2813 667.4375,495.2813 Q667.9063,495.2813 668.2031,495.5 Q668.5,495.7031 668.5,496.1875 L668.5,497.3594 Q668.5,497.8594 668.3594,498.0781 Q668.2188,498.2813 668,498.2813 Q667.7969,498.2813 667.6875,498.1094 Q667.5625,497.9375 667.5,497.4844 Q667.4688,497.1719 667.375,497 Q667.1875,496.6719 666.8438,496.4844 Q666.5156,496.2813 666.1719,496.2813 L666.2969,496.2813 L664.5,498.0781 L664.5,498.0781 L664.5,498.9531 L664.5,499.875 L664.5,500.4844 L666.2969,502.2813 L666.3281,502.2813 Q666.8281,502.2813 667.1875,502.0781 Q667.3906,501.9688 667.625,501.6094 Q667.7656,501.4063 667.8438,501.3438 Q667.9375,501.2813 668.0313,501.2813 Q668.2188,501.2813 668.3594,501.4531 Q668.5,501.625 668.5,501.8594 Q668.5,502.0938 668.2656,502.3594 Q667.9375,502.75 667.4063,502.9844 Q666.7031,503.2813 665.8438,503.2813 L665.7031,503.2813 L662.5,501.0781 L662.5,501.0781 L662.5,501.0781 L662.5,499.8438 L662.5,498.9688 L662.5,497.4844 L662.5,497.4844 L665.7031,495.2813 L665.0781,495.2813 Q665.4844,495.2813 665.8281,495.5313 Q666.1875,495.7813 666.5,496.2813 Z "/><text fill="#000000" font-family="sans-serif" font-size="13" lengthAdjust="spacingAndGlyphs" textLength="165" x="679.5" y="504.6006">MonitoringWellMeasurement</text><line style="stroke: #CCCCCC; stroke-width: 1.0;" x1="653.5" x2="846.5" y1="514.2813" y2="514.2813"/><ellipse cx="663.5" cy="525.2813" fill="none" rx="3" ry="3" style="stroke: #038048; stroke-width: 1.0;"/><text fill="#3C3F41" font-family="sans-serif" font-size="11" lengthAdjust="spacingAndGlyphs" textLength="28" x="671.5" y="529.7002">id : int</text><ellipse cx="663.5" cy="539.1172" fill="none" rx="3" ry="3" style="stroke: #038048; stroke-width: 1.0;"/><text fill="#3C3F41" font-family="sans-serif" font-size="11" lengthAdjust="spacingAndGlyphs" textLength="138" x="671.5" y="543.5361">sensorTimestamp : DateTime</text><ellipse cx="663.5" cy="552.9531" fill="none" rx="3" ry="3" style="stroke: #038048; stroke-width: 1.0;"/><text fill="#3C3F41" font-family="sans-serif" font-size="11" lengthAdjust="spacingAndGlyphs" textLength="136" x="671.5" y="557.3721">serverTimestamp : DateTime</text><ellipse cx="663.5" cy="566.7891" fill="none" rx="3" ry="3" style="stroke: #038048; stroke-width: 1.0;"/><text fill="#3C3F41" font-family="sans-serif" font-size="11" lengthAdjust="spacingAndGlyphs" textLength="131" x="671.5" y="571.208">groundwaterLevel : Double</text><ellipse cx="663.5" cy="580.625" fill="none" rx="3" ry="3" style="stroke: #038048; stroke-width: 1.0;"/><text fill="#3C3F41" font-family="sans-serif" font-size="11" lengthAdjust="spacingAndGlyphs" textLength="89" x="671.5" y="585.0439">monitoringWell : int</text><ellipse cx="663.5" cy="594.4609" fill="none" rx="3" ry="3" style="stroke: #038048; stroke-width: 1.0;"/><text fill="#3C3F41" font-family="sans-serif" font-size="11" lengthAdjust="spacingAndGlyphs" textLength="85" x="671.5" y="598.8799">sensorMeting : int</text><line style="stroke: #CCCCCC; stroke-width: 1.0;" x1="653.5" x2="846.5" y1="605.2969" y2="605.2969"/><!--MD5=[0c991816a16ae60efd2250175c81edcd]
class GroundWater.MonitoringWell--><rect fill="#FFFFFF" height="101.3438" id="GroundWater.MonitoringWell" rx="7.5" ry="7.5" style="stroke: #CCCCCC; stroke-width: 1.0;" width="151" x="38.5" y="140.2813"/><ellipse cx="68.25" cy="155.2813" fill="#ADD1B2" rx="10" ry="10" style="stroke: #CCCCCC; stroke-width: 1.0;"/><path d="M68.25,152.2813 Q68.4531,151.7813 68.6875,151.5313 Q68.9219,151.2813 69.1875,151.2813 Q69.6563,151.2813 69.9531,151.5 Q70.25,151.7031 70.25,152.1875 L70.25,153.3594 Q70.25,153.8594 70.1094,154.0781 Q69.9688,154.2813 69.75,154.2813 Q69.5469,154.2813 69.4375,154.1094 Q69.3125,153.9375 69.25,153.4844 Q69.2188,153.1719 69.125,153 Q68.9375,152.6719 68.5938,152.4844 Q68.2656,152.2813 67.9219,152.2813 L68.0469,152.2813 L66.25,154.0781 L66.25,154.0781 L66.25,154.9531 L66.25,155.875 L66.25,156.4844 L68.0469,158.2813 L68.0781,158.2813 Q68.5781,158.2813 68.9375,158.0781 Q69.1406,157.9688 69.375,157.6094 Q69.5156,157.4063 69.5938,157.3438 Q69.6875,157.2813 69.7813,157.2813 Q69.9688,157.2813 70.1094,157.4531 Q70.25,157.625 70.25,157.8594 Q70.25,158.0938 70.0156,158.3594 Q69.6875,158.75 69.1563,158.9844 Q68.4531,159.2813 67.5938,159.2813 L67.4531,159.2813 L64.25,157.0781 L64.25,157.0781 L64.25,157.0781 L64.25,155.8438 L64.25,154.9688 L64.25,153.4844 L64.25,153.4844 L67.4531,151.2813 L66.8281,151.2813 Q67.2344,151.2813 67.5781,151.5313 Q67.9375,151.7813 68.25,152.2813 Z "/><text fill="#000000" font-family="sans-serif" font-size="13" lengthAdjust="spacingAndGlyphs" textLength="86" x="84.75" y="160.6006">MonitoringWell</text><line style="stroke: #CCCCCC; stroke-width: 1.0;" x1="39.5" x2="188.5" y1="170.2813" y2="170.2813"/><ellipse cx="49.5" cy="181.2813" fill="none" rx="3" ry="3" style="stroke: #038048; stroke-width: 1.0;"/><text fill="#3C3F41" font-family="sans-serif" font-size="11" lengthAdjust="spacingAndGlyphs" textLength="28" x="57.5" y="185.7002">id : Int</text><ellipse cx="49.5" cy="195.1172" fill="none" rx="3" ry="3" style="stroke: #038048; stroke-width: 1.0;"/><text fill="#3C3F41" font-family="sans-serif" font-size="11" lengthAdjust="spacingAndGlyphs" textLength="95" x="57.5" y="199.5361">totalLength : Double</text><ellipse cx="49.5" cy="208.9531" fill="none" rx="3" ry="3" style="stroke: #038048; stroke-width: 1.0;"/><text fill="#3C3F41" font-family="sans-serif" font-size="11" lengthAdjust="spacingAndGlyphs" textLength="126" x="57.5" y="213.3721">topMonitoringWell : Double</text><ellipse cx="49.5" cy="222.7891" fill="none" rx="3" ry="3" style="stroke: #038048; stroke-width: 1.0;"/><text fill="#3C3F41" font-family="sans-serif" font-size="11" lengthAdjust="spacingAndGlyphs" textLength="102" x="57.5" y="227.208">groundLevel : Double</text><line style="stroke: #CCCCCC; stroke-width: 1.0;" x1="39.5" x2="188.5" y1="233.625" y2="233.625"/><!--MD5=[4e70f21c32015ce0c21735497db54ba0]
class GroundWater.SensorMeasurement--><rect fill="#FFFFFF" height="129.0156" id="GroundWater.SensorMeasurement" rx="7.5" ry="7.5" style="stroke: #CCCCCC; stroke-width: 1.0;" width="163" x="224.5" y="126.2813"/><ellipse cx="244.35" cy="141.2813" fill="#ADD1B2" rx="10" ry="10" style="stroke: #CCCCCC; stroke-width: 1.0;"/><path d="M244.35,138.2813 Q244.5531,137.7813 244.7875,137.5313 Q245.0219,137.2813 245.2875,137.2813 Q245.7563,137.2813 246.0531,137.5 Q246.35,137.7031 246.35,138.1875 L246.35,139.3594 Q246.35,139.8594 246.2094,140.0781 Q246.0688,140.2813 245.85,140.2813 Q245.6469,140.2813 245.5375,140.1094 Q245.4125,139.9375 245.35,139.4844 Q245.3188,139.1719 245.225,139 Q245.0375,138.6719 244.6938,138.4844 Q244.3656,138.2813 244.0219,138.2813 L244.1469,138.2813 L242.35,140.0781 L242.35,140.0781 L242.35,140.9531 L242.35,141.875 L242.35,142.4844 L244.1469,144.2813 L244.1781,144.2813 Q244.6781,144.2813 245.0375,144.0781 Q245.2406,143.9688 245.475,143.6094 Q245.6156,143.4063 245.6938,143.3438 Q245.7875,143.2813 245.8813,143.2813 Q246.0688,143.2813 246.2094,143.4531 Q246.35,143.625 246.35,143.8594 Q246.35,144.0938 246.1156,144.3594 Q245.7875,144.75 245.2563,144.9844 Q244.5531,145.2813 243.6938,145.2813 L243.5531,145.2813 L240.35,143.0781 L240.35,143.0781 L240.35,143.0781 L240.35,141.8438 L240.35,140.9688 L240.35,139.4844 L240.35,139.4844 L243.5531,137.2813 L242.9281,137.2813 Q243.3344,137.2813 243.6781,137.5313 Q244.0375,137.7813 244.35,138.2813 Z "/><text fill="#000000" font-family="sans-serif" font-size="13" lengthAdjust="spacingAndGlyphs" textLength="120" x="258.65" y="146.6006">SensorMeasurement</text><line style="stroke: #CCCCCC; stroke-width: 1.0;" x1="225.5" x2="386.5" y1="156.2813" y2="156.2813"/><ellipse cx="235.5" cy="167.2813" fill="none" rx="3" ry="3" style="stroke: #038048; stroke-width: 1.0;"/><text fill="#3C3F41" font-family="sans-serif" font-size="11" lengthAdjust="spacingAndGlyphs" textLength="28" x="243.5" y="171.7002">id : int</text><ellipse cx="235.5" cy="181.1172" fill="none" rx="3" ry="3" style="stroke: #038048; stroke-width: 1.0;"/><text fill="#3C3F41" font-family="sans-serif" font-size="11" lengthAdjust="spacingAndGlyphs" textLength="42" x="243.5" y="185.5361">level : int</text><ellipse cx="235.5" cy="194.9531" fill="none" rx="3" ry="3" style="stroke: #038048; stroke-width: 1.0;"/><text fill="#3C3F41" font-family="sans-serif" font-size="11" lengthAdjust="spacingAndGlyphs" textLength="102" x="243.5" y="199.3721">levelFromGround : int</text><ellipse cx="235.5" cy="208.7891" fill="none" rx="3" ry="3" style="stroke: #038048; stroke-width: 1.0;"/><text fill="#3C3F41" font-family="sans-serif" font-size="11" lengthAdjust="spacingAndGlyphs" textLength="138" x="243.5" y="213.208">sensorTimestamp : DateTime</text><ellipse cx="235.5" cy="222.625" fill="none" rx="3" ry="3" style="stroke: #038048; stroke-width: 1.0;"/><text fill="#3C3F41" font-family="sans-serif" font-size="11" lengthAdjust="spacingAndGlyphs" textLength="136" x="243.5" y="227.0439">serverTimestamp : DateTime</text><ellipse cx="235.5" cy="236.4609" fill="none" rx="3" ry="3" style="stroke: #038048; stroke-width: 1.0;"/><text fill="#3C3F41" font-family="sans-serif" font-size="11" lengthAdjust="spacingAndGlyphs" textLength="100" x="243.5" y="240.8799">temperature : Double</text><line style="stroke: #CCCCCC; stroke-width: 1.0;" x1="225.5" x2="386.5" y1="247.2969" y2="247.2969"/><!--MD5=[dbc6f79eaf36b6507ae2a81c4e2d50d8]
class GroundWater.WeatherMeasurement--><rect fill="#FFFFFF" height="87.5078" id="GroundWater.WeatherMeasurement" rx="7.5" ry="7.5" style="stroke: #CCCCCC; stroke-width: 1.0;" width="158" x="38" y="336.2813"/><ellipse cx="52" cy="351.2813" fill="#ADD1B2" rx="10" ry="10" style="stroke: #CCCCCC; stroke-width: 1.0;"/><path d="M52,348.2813 Q52.2031,347.7813 52.4375,347.5313 Q52.6719,347.2813 52.9375,347.2813 Q53.4063,347.2813 53.7031,347.5 Q54,347.7031 54,348.1875 L54,349.3594 Q54,349.8594 53.8594,350.0781 Q53.7188,350.2813 53.5,350.2813 Q53.2969,350.2813 53.1875,350.1094 Q53.0625,349.9375 53,349.4844 Q52.9688,349.1719 52.875,349 Q52.6875,348.6719 52.3438,348.4844 Q52.0156,348.2813 51.6719,348.2813 L51.7969,348.2813 L50,350.0781 L50,350.0781 L50,350.9531 L50,351.875 L50,352.4844 L51.7969,354.2813 L51.8281,354.2813 Q52.3281,354.2813 52.6875,354.0781 Q52.8906,353.9688 53.125,353.6094 Q53.2656,353.4063 53.3438,353.3438 Q53.4375,353.2813 53.5313,353.2813 Q53.7188,353.2813 53.8594,353.4531 Q54,353.625 54,353.8594 Q54,354.0938 53.7656,354.3594 Q53.4375,354.75 52.9063,354.9844 Q52.2031,355.2813 51.3438,355.2813 L51.2031,355.2813 L48,353.0781 L48,353.0781 L48,353.0781 L48,351.8438 L48,350.9688 L48,349.4844 L48,349.4844 L51.2031,347.2813 L50.5781,347.2813 Q50.9844,347.2813 51.3281,347.5313 Q51.6875,347.7813 52,348.2813 Z "/><text fill="#000000" font-family="sans-serif" font-size="13" lengthAdjust="spacingAndGlyphs" textLength="128" x="65" y="356.6006">WeatherMeasurement</text><line style="stroke: #CCCCCC; stroke-width: 1.0;" x1="39" x2="195" y1="366.2813" y2="366.2813"/><ellipse cx="49" cy="377.2813" fill="none" rx="3" ry="3" style="stroke: #038048; stroke-width: 1.0;"/><text fill="#3C3F41" font-family="sans-serif" font-size="11" lengthAdjust="spacingAndGlyphs" textLength="72" x="57" y="381.7002">time : DateTime</text><ellipse cx="49" cy="391.1172" fill="none" rx="3" ry="3" style="stroke: #038048; stroke-width: 1.0;"/><text fill="#3C3F41" font-family="sans-serif" font-size="11" lengthAdjust="spacingAndGlyphs" textLength="112" x="57" y="395.5361">precipIntensity : Double</text><ellipse cx="49" cy="404.9531" fill="none" rx="3" ry="3" style="stroke: #038048; stroke-width: 1.0;"/><text fill="#3C3F41" font-family="sans-serif" font-size="11" lengthAdjust="spacingAndGlyphs" textLength="57" x="57" y="409.3721">icon : String</text><line style="stroke: #CCCCCC; stroke-width: 1.0;" x1="39" x2="195" y1="415.7891" y2="415.7891"/><!--MD5=[77aaa747253257e12e2292b25ac4689c]
class GroundWater.Setting--><rect fill="#FFFFFF" height="156.6875" id="GroundWater.Setting" rx="7.5" ry="7.5" style="stroke: #CCCCCC; stroke-width: 1.0;" width="238" x="792" y="112.2813"/><ellipse cx="886.5" cy="127.2813" fill="#ADD1B2" rx="10" ry="10" style="stroke: #CCCCCC; stroke-width: 1.0;"/><path d="M886.5,124.2813 Q886.7031,123.7813 886.9375,123.5313 Q887.1719,123.2813 887.4375,123.2813 Q887.9063,123.2813 888.2031,123.5 Q888.5,123.7031 888.5,124.1875 L888.5,125.3594 Q888.5,125.8594 888.3594,126.0781 Q888.2188,126.2813 888,126.2813 Q887.7969,126.2813 887.6875,126.1094 Q887.5625,125.9375 887.5,125.4844 Q887.4688,125.1719 887.375,125 Q887.1875,124.6719 886.8438,124.4844 Q886.5156,124.2813 886.1719,124.2813 L886.2969,124.2813 L884.5,126.0781 L884.5,126.0781 L884.5,126.9531 L884.5,127.875 L884.5,128.4844 L886.2969,130.2813 L886.3281,130.2813 Q886.8281,130.2813 887.1875,130.0781 Q887.3906,129.9688 887.625,129.6094 Q887.7656,129.4063 887.8438,129.3438 Q887.9375,129.2813 888.0313,129.2813 Q888.2188,129.2813 888.3594,129.4531 Q888.5,129.625 888.5,129.8594 Q888.5,130.0938 888.2656,130.3594 Q887.9375,130.75 887.4063,130.9844 Q886.7031,131.2813 885.8438,131.2813 L885.7031,131.2813 L882.5,129.0781 L882.5,129.0781 L882.5,129.0781 L882.5,127.8438 L882.5,126.9688 L882.5,125.4844 L882.5,125.4844 L885.7031,123.2813 L885.0781,123.2813 Q885.4844,123.2813 885.8281,123.5313 Q886.1875,123.7813 886.5,124.2813 Z "/><text fill="#000000" font-family="sans-serif" font-size="13" lengthAdjust="spacingAndGlyphs" textLength="41" x="905.5" y="132.6006">Setting</text><line style="stroke: #CCCCCC; stroke-width: 1.0;" x1="793" x2="1029" y1="142.2813" y2="142.2813"/><ellipse cx="803" cy="153.2813" fill="none" rx="3" ry="3" style="stroke: #038048; stroke-width: 1.0;"/><text fill="#3C3F41" font-family="sans-serif" font-size="11" lengthAdjust="spacingAndGlyphs" textLength="137" x="811" y="157.7002">precipitationAmount : Double</text><ellipse cx="803" cy="167.1172" fill="none" rx="3" ry="3" style="stroke: #038048; stroke-width: 1.0;"/><text fill="#3C3F41" font-family="sans-serif" font-size="11" lengthAdjust="spacingAndGlyphs" textLength="140" x="811" y="171.5361">precipitationDuration : Double</text><ellipse cx="803" cy="180.9531" fill="none" rx="3" ry="3" style="stroke: #038048; stroke-width: 1.0;"/><text fill="#3C3F41" font-family="sans-serif" font-size="11" lengthAdjust="spacingAndGlyphs" textLength="152" x="811" y="185.3721">precipitationAmountChance : int</text><ellipse cx="803" cy="194.7891" fill="none" rx="3" ry="3" style="stroke: #038048; stroke-width: 1.0;"/><text fill="#3C3F41" font-family="sans-serif" font-size="11" lengthAdjust="spacingAndGlyphs" textLength="109" x="811" y="199.208">groundWaterLevel : int</text><ellipse cx="803" cy="208.625" fill="none" rx="3" ry="3" style="stroke: #038048; stroke-width: 1.0;"/><text fill="#3C3F41" font-family="sans-serif" font-size="11" lengthAdjust="spacingAndGlyphs" textLength="95" x="811" y="213.0439">basementDepth : int</text><ellipse cx="803" cy="222.4609" fill="none" rx="3" ry="3" style="stroke: #038048; stroke-width: 1.0;"/><text fill="#3C3F41" font-family="sans-serif" font-size="11" lengthAdjust="spacingAndGlyphs" textLength="213" x="811" y="226.8799">showPrecipitationAmountAndDuration : Bool</text><ellipse cx="803" cy="236.2969" fill="none" rx="3" ry="3" style="stroke: #038048; stroke-width: 1.0;"/><text fill="#3C3F41" font-family="sans-serif" font-size="11" lengthAdjust="spacingAndGlyphs" textLength="153" x="811" y="240.7158">showPrecipitationChance : Bool</text><ellipse cx="803" cy="250.1328" fill="none" rx="3" ry="3" style="stroke: #038048; stroke-width: 1.0;"/><text fill="#3C3F41" font-family="sans-serif" font-size="11" lengthAdjust="spacingAndGlyphs" textLength="149" x="811" y="254.5518">showGroundWaterLevel : Bool</text><line style="stroke: #CCCCCC; stroke-width: 1.0;" x1="793" x2="1029" y1="260.9688" y2="260.9688"/><!--MD5=[eb85dda403969fbb34eac0e94c14b8fe]
class GroundWater.Solution--><rect fill="#FFFFFF" height="73.6719" id="GroundWater.Solution" rx="7.5" ry="7.5" style="stroke: #CCCCCC; stroke-width: 1.0;" width="115" x="255.5" y="343.2813"/><ellipse cx="286.6" cy="358.2813" fill="#ADD1B2" rx="10" ry="10" style="stroke: #CCCCCC; stroke-width: 1.0;"/><path d="M286.6,355.2813 Q286.8031,354.7813 287.0375,354.5313 Q287.2719,354.2813 287.5375,354.2813 Q288.0063,354.2813 288.3031,354.5 Q288.6,354.7031 288.6,355.1875 L288.6,356.3594 Q288.6,356.8594 288.4594,357.0781 Q288.3188,357.2813 288.1,357.2813 Q287.8969,357.2813 287.7875,357.1094 Q287.6625,356.9375 287.6,356.4844 Q287.5688,356.1719 287.475,356 Q287.2875,355.6719 286.9438,355.4844 Q286.6156,355.2813 286.2719,355.2813 L286.3969,355.2813 L284.6,357.0781 L284.6,357.0781 L284.6,357.9531 L284.6,358.875 L284.6,359.4844 L286.3969,361.2813 L286.4281,361.2813 Q286.9281,361.2813 287.2875,361.0781 Q287.4906,360.9688 287.725,360.6094 Q287.8656,360.4063 287.9438,360.3438 Q288.0375,360.2813 288.1313,360.2813 Q288.3188,360.2813 288.4594,360.4531 Q288.6,360.625 288.6,360.8594 Q288.6,361.0938 288.3656,361.3594 Q288.0375,361.75 287.5063,361.9844 Q286.8031,362.2813 285.9438,362.2813 L285.8031,362.2813 L282.6,360.0781 L282.6,360.0781 L282.6,360.0781 L282.6,358.8438 L282.6,357.9688 L282.6,356.4844 L282.6,356.4844 L285.8031,354.2813 L285.1781,354.2813 Q285.5844,354.2813 285.9281,354.5313 Q286.2875,354.7813 286.6,355.2813 Z "/><text fill="#000000" font-family="sans-serif" font-size="13" lengthAdjust="spacingAndGlyphs" textLength="47" x="303.4" y="363.6006">Solution</text><line style="stroke: #CCCCCC; stroke-width: 1.0;" x1="256.5" x2="369.5" y1="373.2813" y2="373.2813"/><ellipse cx="266.5" cy="384.2813" fill="none" rx="3" ry="3" style="stroke: #038048; stroke-width: 1.0;"/><text fill="#3C3F41" font-family="sans-serif" font-size="11" lengthAdjust="spacingAndGlyphs" textLength="53" x="274.5" y="388.7002">title : String</text><ellipse cx="266.5" cy="398.1172" fill="none" rx="3" ry="3" style="stroke: #038048; stroke-width: 1.0;"/><text fill="#3C3F41" font-family="sans-serif" font-size="11" lengthAdjust="spacingAndGlyphs" textLength="90" x="274.5" y="402.5361">description : String</text><line style="stroke: #CCCCCC; stroke-width: 1.0;" x1="256.5" x2="369.5" y1="408.9531" y2="408.9531"/><!--MD5=[1db408dfacd5a83cd9267a3a064c8795]
class GroundWater.Question--><rect fill="#FFFFFF" height="73.6719" id="GroundWater.Question" rx="7.5" ry="7.5" style="stroke: #CCCCCC; stroke-width: 1.0;" width="147" x="585.5" y="343.2813"/><ellipse cx="629" cy="358.2813" fill="#ADD1B2" rx="10" ry="10" style="stroke: #CCCCCC; stroke-width: 1.0;"/><path d="M629,355.2813 Q629.2031,354.7813 629.4375,354.5313 Q629.6719,354.2813 629.9375,354.2813 Q630.4063,354.2813 630.7031,354.5 Q631,354.7031 631,355.1875 L631,356.3594 Q631,356.8594 630.8594,357.0781 Q630.7188,357.2813 630.5,357.2813 Q630.2969,357.2813 630.1875,357.1094 Q630.0625,356.9375 630,356.4844 Q629.9688,356.1719 629.875,356 Q629.6875,355.6719 629.3438,355.4844 Q629.0156,355.2813 628.6719,355.2813 L628.7969,355.2813 L627,357.0781 L627,357.0781 L627,357.9531 L627,358.875 L627,359.4844 L628.7969,361.2813 L628.8281,361.2813 Q629.3281,361.2813 629.6875,361.0781 Q629.8906,360.9688 630.125,360.6094 Q630.2656,360.4063 630.3438,360.3438 Q630.4375,360.2813 630.5313,360.2813 Q630.7188,360.2813 630.8594,360.4531 Q631,360.625 631,360.8594 Q631,361.0938 630.7656,361.3594 Q630.4375,361.75 629.9063,361.9844 Q629.2031,362.2813 628.3438,362.2813 L628.2031,362.2813 L625,360.0781 L625,360.0781 L625,360.0781 L625,358.8438 L625,357.9688 L625,356.4844 L625,356.4844 L628.2031,354.2813 L627.5781,354.2813 Q627.9844,354.2813 628.3281,354.5313 Q628.6875,354.7813 629,355.2813 Z "/><text fill="#000000" font-family="sans-serif" font-size="13" lengthAdjust="spacingAndGlyphs" textLength="52" x="648" y="363.6006">Question</text><line style="stroke: #CCCCCC; stroke-width: 1.0;" x1="586.5" x2="731.5" y1="373.2813" y2="373.2813"/><ellipse cx="596.5" cy="384.2813" fill="none" rx="3" ry="3" style="stroke: #038048; stroke-width: 1.0;"/><text fill="#3C3F41" font-family="sans-serif" font-size="11" lengthAdjust="spacingAndGlyphs" textLength="78" x="604.5" y="388.7002">question : String</text><ellipse cx="596.5" cy="398.1172" fill="none" rx="3" ry="3" style="stroke: #038048; stroke-width: 1.0;"/><text fill="#3C3F41" font-family="sans-serif" font-size="11" lengthAdjust="spacingAndGlyphs" textLength="122" x="604.5" y="402.5361">answers : List&lt;Answer&gt;</text><line style="stroke: #CCCCCC; stroke-width: 1.0;" x1="586.5" x2="731.5" y1="408.9531" y2="408.9531"/><!--MD5=[368108e6c0779838d922a26c649c1802]
class GroundWater.Answer--><rect fill="#FFFFFF" height="87.5078" id="GroundWater.Answer" rx="7.5" ry="7.5" style="stroke: #CCCCCC; stroke-width: 1.0;" width="144" x="406" y="336.2813"/><ellipse cx="452.5" cy="351.2813" fill="#ADD1B2" rx="10" ry="10" style="stroke: #CCCCCC; stroke-width: 1.0;"/><path d="M452.5,348.2813 Q452.7031,347.7813 452.9375,347.5313 Q453.1719,347.2813 453.4375,347.2813 Q453.9063,347.2813 454.2031,347.5 Q454.5,347.7031 454.5,348.1875 L454.5,349.3594 Q454.5,349.8594 454.3594,350.0781 Q454.2188,350.2813 454,350.2813 Q453.7969,350.2813 453.6875,350.1094 Q453.5625,349.9375 453.5,349.4844 Q453.4688,349.1719 453.375,349 Q453.1875,348.6719 452.8438,348.4844 Q452.5156,348.2813 452.1719,348.2813 L452.2969,348.2813 L450.5,350.0781 L450.5,350.0781 L450.5,350.9531 L450.5,351.875 L450.5,352.4844 L452.2969,354.2813 L452.3281,354.2813 Q452.8281,354.2813 453.1875,354.0781 Q453.3906,353.9688 453.625,353.6094 Q453.7656,353.4063 453.8438,353.3438 Q453.9375,353.2813 454.0313,353.2813 Q454.2188,353.2813 454.3594,353.4531 Q454.5,353.625 454.5,353.8594 Q454.5,354.0938 454.2656,354.3594 Q453.9375,354.75 453.4063,354.9844 Q452.7031,355.2813 451.8438,355.2813 L451.7031,355.2813 L448.5,353.0781 L448.5,353.0781 L448.5,353.0781 L448.5,351.8438 L448.5,350.9688 L448.5,349.4844 L448.5,349.4844 L451.7031,347.2813 L451.0781,347.2813 Q451.4844,347.2813 451.8281,347.5313 Q452.1875,347.7813 452.5,348.2813 Z "/><text fill="#000000" font-family="sans-serif" font-size="13" lengthAdjust="spacingAndGlyphs" textLength="43" x="471.5" y="356.6006">Answer</text><line style="stroke: #CCCCCC; stroke-width: 1.0;" x1="407" x2="549" y1="366.2813" y2="366.2813"/><ellipse cx="417" cy="377.2813" fill="none" rx="3" ry="3" style="stroke: #038048; stroke-width: 1.0;"/><text fill="#3C3F41" font-family="sans-serif" font-size="11" lengthAdjust="spacingAndGlyphs" textLength="75" x="425" y="381.7002">answer : String</text><ellipse cx="417" cy="391.1172" fill="none" rx="3" ry="3" style="stroke: #038048; stroke-width: 1.0;"/><text fill="#3C3F41" font-family="sans-serif" font-size="11" lengthAdjust="spacingAndGlyphs" textLength="116" x="425" y="395.5361">nextQuestion : Question</text><ellipse cx="417" cy="404.9531" fill="none" rx="3" ry="3" style="stroke: #038048; stroke-width: 1.0;"/><text fill="#3C3F41" font-family="sans-serif" font-size="11" lengthAdjust="spacingAndGlyphs" textLength="119" x="425" y="409.3721">solutions : List&lt;Solution&gt;</text><line style="stroke: #CCCCCC; stroke-width: 1.0;" x1="407" x2="549" y1="415.7891" y2="415.7891"/><!--MD5=[0b12febdd04ce85df3fcc7bc9d4a51d3]
link GroundWater.Sensor to GroundWater.User--><path d="M595.576,190.7813 C595.576,190.7813 606.656,190.7813 606.656,190.7813 " fill="none" id="GroundWater.Sensor-GroundWater.User" style="stroke: #A80036; stroke-width: 1.0;"/><polygon fill="#A80036" points="618.656,190.7813,612.656,186.7813,606.656,190.7813,612.656,194.7813,618.656,190.7813" style="stroke: #A80036; stroke-width: 1.0;"/><polygon fill="#A80036" points="583.576,190.7813,589.576,194.7813,595.576,190.7813,589.576,186.7813,583.576,190.7813" style="stroke: #A80036; stroke-width: 1.0;"/><text fill="#000000" font-family="sans-serif" font-size="13" lengthAdjust="spacingAndGlyphs" textLength="5" x="591.4942" y="187.5533">*</text><text fill="#000000" font-family="sans-serif" font-size="13" lengthAdjust="spacingAndGlyphs" textLength="5" x="605.7981" y="187.4377">*</text><!--MD5=[b59e7bcc83084d206f0d5378e2edebe4]
reverse link GroundWater.Solution to GroundWater.Answer--><path d="M383.89,380.2813 C391.226,380.2813 398.562,380.2813 405.898,380.2813 " fill="none" id="GroundWater.Solution&lt;-GroundWater.Answer" style="stroke: #A80036; stroke-width: 1.0;"/><polygon fill="#A80036" points="370.686,380.2813,376.686,384.2813,382.686,380.2813,376.686,376.2813,370.686,380.2813" style="stroke: #A80036; stroke-width: 1.0;"/><text fill="#000000" font-family="sans-serif" font-size="13" lengthAdjust="spacingAndGlyphs" textLength="5" x="378.3973" y="376.7949">*</text><text fill="#000000" font-family="sans-serif" font-size="13" lengthAdjust="spacingAndGlyphs" textLength="7" x="391.1015" y="376.9949">1</text><!--MD5=[a5f93bf79594722b3e8a8d87ddd70c43]
reverse link GroundWater.Answer to GroundWater.Question--><path d="M563.355,380.2813 C570.71,380.2813 578.064,380.2813 585.419,380.2813 " fill="none" id="GroundWater.Answer&lt;-GroundWater.Question" style="stroke: #A80036; stroke-width: 1.0;"/><polygon fill="#A80036" points="550.117,380.2813,556.117,384.2813,562.117,380.2813,556.117,376.2813,550.117,380.2813" style="stroke: #A80036; stroke-width: 1.0;"/><text fill="#000000" font-family="sans-serif" font-size="13" lengthAdjust="spacingAndGlyphs" textLength="5" x="557.8119" y="376.9949">*</text><text fill="#000000" font-family="sans-serif" font-size="13" lengthAdjust="spacingAndGlyphs" textLength="7" x="570.47" y="376.9864">1</text><!--MD5=[226a8b54d62a7d7652ef86cb4060f249]
link GroundWater.Note to GroundWater.MonitoringWellMeasurement--><path d="M591.027,548.7813 C591.027,548.7813 640.492,548.7813 640.492,548.7813 " fill="none" id="GroundWater.Note-GroundWater.MonitoringWellMeasurement" style="stroke: #A80036; stroke-width: 1.0;"/><polygon fill="#A80036" points="652.492,548.7813,646.492,544.7813,640.492,548.7813,646.492,552.7813,652.492,548.7813" style="stroke: #A80036; stroke-width: 1.0;"/><polygon fill="#A80036" points="579.027,548.7813,585.027,552.7813,591.027,548.7813,585.027,544.7813,579.027,548.7813" style="stroke: #A80036; stroke-width: 1.0;"/><text fill="#000000" font-family="sans-serif" font-size="13" lengthAdjust="spacingAndGlyphs" textLength="5" x="587.0835" y="545.5221">*</text><text fill="#000000" font-family="sans-serif" font-size="13" lengthAdjust="spacingAndGlyphs" textLength="5" x="639.5226" y="545.6523">*</text><!--MD5=[94ada585b8d94c9e2b6cff9c91b3568b]
link GroundWater.User to GroundWater.Setting--><path d="M769.252,190.7813 C769.252,190.7813 779.785,190.7813 779.785,190.7813 " fill="none" id="GroundWater.User-GroundWater.Setting" style="stroke: #A80036; stroke-width: 1.0;"/><polygon fill="#A80036" points="791.785,190.7813,785.785,186.7813,779.785,190.7813,785.785,194.7813,791.785,190.7813" style="stroke: #A80036; stroke-width: 1.0;"/><polygon fill="#A80036" points="757.252,190.7813,763.252,194.7813,769.252,190.7813,763.252,186.7813,757.252,190.7813" style="stroke: #A80036; stroke-width: 1.0;"/><text fill="#000000" font-family="sans-serif" font-size="13" lengthAdjust="spacingAndGlyphs" textLength="7" x="765.2093" y="187.4377">1</text><text fill="#000000" font-family="sans-serif" font-size="13" lengthAdjust="spacingAndGlyphs" textLength="7" x="776.9236" y="187.7851">1</text><!--MD5=[0029fee442f090f0c221ae650dde6601]
link GroundWater.Answer to GroundWater.Note--><!--MD5=[c6ed9418ca8ae5a5a062204d40e11268]
link GroundWater.Sensor to GroundWater.MonitoringWellMeasurement--><!--MD5=[6efbd81955f5eea0643eb7a566d5a7aa]
link GroundWater.Sensor to GroundWater.Answer--><!--MD5=[46820bd935f33ee1f70b049ad6a4d71f]
link GroundWater.MonitoringWell to GroundWater.SensorMeasurement--><!--MD5=[7de82232a52b11773407dc85a0a93d03]
link GroundWater.MonitoringWell to GroundWater.WeatherMeasurement--><!--MD5=[cf70ed4002d09917d431639f0157acc2]
@startuml

title Class Diagram GroundWater\n
skinparam class {
    BorderColor CCC
    BackgroundColor white
}

skinparam roundCorner 15
skinparam ClassBorderThickness 1
skinparam ClassFontSize 13
skinparam ClassAttributeFontColor #3c3f41
skinparam CircledCharacterRadius 10
skinparam CircledCharacterFontSize 14
skinparam Shadowing false
skinparam NoteBackgroundColor white
skinparam NoteBorderColor #ccc

Package GroundWater #fafafa/fafafa {
}
namespace GroundWater {
  class GroundWater.Sensor {
	  + internalId : int
	  + uuid : String
	  + externalSensorId : int
	  + externalMonitoringWellId : int
	  + name : String
	  + latitude  : Double
	  + longitude  : Double
	  + address  : String
	  + cellarHeight : int
  }

  class GroundWater.User {
  	  + id : int
  	  + oauthProvider
  	  + oauthId : String
  	  + username : String
  	  + name : String
  	  + sensors : List<Sensor>
  	  + firebaseToken : String
  	  + setting : Setting
  }

  class GroundWater.Note {
	  + id : int
	  + dataPointId : int
	  + creationDate : int
	  + externalMonitoringWellId  : int
	  + description : String
  }

  class GroundWater.MonitoringWellMeasurement {
      + id : int
      + sensorTimestamp : DateTime
      + serverTimestamp : DateTime
      + groundwaterLevel : Double
      + monitoringWell : int
      + sensorMeting : int
   }

   class GroundWater.MonitoringWell {
      + id : Int
      + totalLength : Double
      + topMonitoringWell : Double
      + groundLevel : Double
   }

   class GroundWater.SensorMeasurement {
      + id : int
      + level : int
      + levelFromGround : int
      + sensorTimestamp : DateTime
      + serverTimestamp : DateTime
      + temperature : Double
   }

   class GroundWater.WeatherMeasurement {
   	 + time : DateTime
     + precipIntensity : Double
     + icon : String
   }

   class GroundWater.Setting {
      + precipitationAmount : Double
      + precipitationDuration : Double
      + precipitationAmountChance : int
      + groundWaterLevel : int
      + basementDepth : int
      + showPrecipitationAmountAndDuration : Bool
      + showPrecipitationChance : Bool
      + showGroundWaterLevel : Bool
   }

   class GroundWater.Solution {
      + title : String
      + description : String
   }

   class GroundWater.Question {
      + question : String
      + answers : List<Answer>
   }

   class GroundWater.Answer {
      + answer : String
      + nextQuestion : Question
      + solutions : List<Solution>
    }
}



GroundWater.User "*" 	*-r-* 	"*" GroundWater.Sensor
GroundWater.Answer "1" -r-* "*" GroundWater.Solution
GroundWater.Answer "*" *-r- "1" GroundWater.Question
GroundWater.Note "*" *-l-* "*" GroundWater.MonitoringWellMeasurement
GroundWater.User "1" *-l-* "1" GroundWater.Setting

GroundWater.Answer -[hidden]- GroundWater.Note
GroundWater.Sensor -[hidden]- GroundWater.MonitoringWellMeasurement
GroundWater.Sensor -[hidden]- GroundWater.Answer

@enduml

PlantUML version 1.2019.11(Sun Sep 22 12:02:15 CEST 2019)
(GPL source distribution)
Java Runtime: OpenJDK Runtime Environment
JVM: OpenJDK 64-Bit Server VM
Java Version: 11.0.5+10-b520.30
Operating System: Windows 10
Default Encoding: Cp1252
Language: en
Country: US
--></g></svg>