<svg id="Livello_1" data-name="Livello 1" xmlns="http://www.w3.org/2000/svg" viewBox="0 0 550 550"><title>Google</title><path d="M541.77,281.26a319.25,319.25,0,0,0-4.7-55.3H280.37v104.8h147a126,126,0,0,1-54.4,82.7v68h87.7C512.17,434.06,541.77,364.06,541.77,281.26Z" transform="translate(-1 -1)" fill="#4285f4"/><path d="M280.37,547.16c73.4,0,135.3-24.1,180.4-65.7l-87.7-68c-24.4,16.6-55.9,26-92.6,26-71,0-131.2-47.9-152.8-112.3H37.17v70.1A272.21,272.21,0,0,0,280.37,547.16Z" transform="translate(-1 -1)" fill="#34a853"/><path d="M127.57,327.16a163,163,0,0,1,0-104.2v-70.1H37.17a272.38,272.38,0,0,0,0,244.4Z" transform="translate(-1 -1)" fill="#fbbc04"/><path d="M280.37,110.56a147.86,147.86,0,0,1,104.4,40.8h0l77.7-77.7a261.51,261.51,0,0,0-182.1-70.8,272.11,272.11,0,0,0-243.2,150l90.4,70.1C149.07,158.46,209.37,110.56,280.37,110.56Z" transform="translate(-1 -1)" fill="#ea4335"/><rect width="550" height="550" fill="#fff" opacity="0"/></svg>